<?xml version="1.0" encoding="utf-8"?>
<!-- Generator: Adobe Illustrator 15.1.0, SVG Export Plug-In . SVG Version: 6.00 Build 0)  -->
<!DOCTYPE svg PUBLIC "-//W3C//DTD SVG 1.1//EN" "http://www.w3.org/Graphics/SVG/1.1/DTD/svg11.dtd">
<svg version="1.1" id="layer_1" xmlns="http://www.w3.org/2000/svg" xmlns:xlink="http://www.w3.org/1999/xlink" x="0px" y="0px"
	 width="1000px" height="590px" viewBox="0 0 1000 590" enable-background="new 0 0 1000 590" xml:space="preserve">
<symbol  id="singalPanel" viewBox="-1.45 -16.95 78.05 19.3">
	<g id="layer_2_1_">
		<path fill-rule="evenodd" clip-rule="evenodd" fill="#FFFFFF" d="M17.25,0.2L15.2-1.85L13.05,0.3l2.05,2.05L17.25,0.2z M12.8-4.25
			L10.75-6.3L8.6-4.15l2.05,2.05L12.8-4.25z M10.85-1.9l2,2L15-2.05l-2-2L10.85-1.9z M11.95-8.9l-2.2-2.2L9.3-10.65l2.2,2.2
			L11.95-8.9z M10.9-10.25l0.2,0.15l0.95,1l1.6-0.1L10-12.85l-0.1,1.6L10.9-10.25z M2.8-10l2.15-2.15l-2.05-2L0.75-12L2.8-10z
			 M5.05-7.7L7.2-9.85L5.15-11.9L3-9.75L5.05-7.7z M6.65-3.4l4.75-4.75L9.05-10.5L4.3-5.75L6.65-3.4z M0.7-16.35l-2.15,2.15
			l2.05,2.05l2.15-2.15L0.7-16.35z"/>
	</g>
	<g id="layer_1_1_">
		<path fill-rule="evenodd" clip-rule="evenodd" fill="#FFFFFF" d="M66.85,0l1.95-0.8c1.534-2.3,2.267-4.317,2.2-6.05
			c-0.067-0.9-0.317-1.733-0.75-2.5c-0.7-1.133-1.983-2.083-3.85-2.85c-0.7-0.267-1.467-0.517-2.3-0.75l-1.95,0.85
			c1.633,1.3,2.85,2.8,3.65,4.5l-3.9,2.55l4.5-1C67.033-4.25,67.183-2.233,66.85,0z M71.35-7.65h2v-7.5h3.25v-1.8H62.05v1.8h3.7V-13
			c2.3,0.767,3.867,1.717,4.7,2.85C71.017-9.417,71.317-8.583,71.35-7.65z"/>
	</g>
	<g id="layer_3_1_">
	</g>
</symbol>
<use xlink:href="#singalPanel"  width="78.05" height="19.3" x="-1.45" y="-16.95" transform="matrix(1 0 0 -1 1.4502 2.3501)" overflow="visible"/>
</svg>
