<?xml version="1.0" encoding="utf-8"?>
<!-- Generator: Adobe Illustrator 16.0.0, SVG Export Plug-In . SVG Version: 6.00 Build 0)  -->
<!DOCTYPE svg PUBLIC "-//W3C//DTD SVG 1.1//EN" "http://www.w3.org/Graphics/SVG/1.1/DTD/svg11.dtd">
<svg version="1.1" id="Selected_Items" xmlns="http://www.w3.org/2000/svg" xmlns:xlink="http://www.w3.org/1999/xlink" x="0px"
	 y="0px" width="1024px" height="680px" viewBox="0 0 1024 680" enable-background="new 0 0 1024 680" xml:space="preserve">
<path fill-rule="evenodd" clip-rule="evenodd" d="M668.75,313.5l-5.25,1.5l-0.25,5.75l4.25,8l8.75,13l0.25,4.5l-25.5-1l-2.5-4
	L643,344l-5.5-6l5.75-9.75l-2.5-6.5l-11.8,1.475l-4.5,1.275l-16,9.5l-0.5-6l2.5-10.5l6.5-4l-5-7l-7.65,4.5l-3.6,9.2l-10,9.5
	l-8.5,4.5l2.5,7l10.5,5l9.5-6l11.5,4l8.5,2v9.5l-8,1.5l-8.5,3.5l0.5,6.5l-10.5,3.5l-6,6.5l6,3l3.5,11l7.5,10.5l11,10.5l2.625,8.3
	L612,427.25l11.25-0.75l-1.75,12.75L616.75,451l-4,8.5l-7,5.75L602,472l-9.5,14.25l-6,6.5l-5,3.75l-10,5.7l-11.75,9.25l-11,1.75
	l-12,0.5l-9,5.75l-10.5,3.75l-20.5-0.75l-1,6.25l4.5,2l2.75,8l-8,5.5l-6.75,7.25l-8.75-0.25l-10.25-5l-0.5-7.25l5.25-4.75
	l11.75-4.25l-0.5-4l-1.75-5.25l-10.25-3L463,519.45l-5,1.3l-13.75,12.2l2.75,8.25l2.5,10l4.75,5.75l-10.5-2.75l-7.5-12l0.25-11.45
	l1-11.75l-14.25-16.75v6l-7.5-5l-5-11l-5.5-8.25l0.25-9.5l-6-8.5v-5.25l-5.75-7l-6.5-2.5l-5.5,2.25L377,450l-0.75-10.5l3.5-5.25
	l-1-22.25l5.5,4.5l5.25,8l3.5,6.5l2-6.5l5.25-2.5l4.25-15l5.75-2.75l4.5,0.5l15-11.75l-0.25-15l8.75-7l3.5,5l4.75-9.5l-7.5-12.75
	l-4.75-10.5l-9-8.75l0.25-5l-3.75-3.75L420.5,318l7.25,2.5l11.25,1l-9-6.5l-5.75-2.25L418,306l-13.75-13.5l-0.75-4.75l-9.75,0.75
	l-9.25-10.25l-5.5-1.5l-4.25-4l-8.5,1.75L359,273l-17.5-0.75l-7.25-0.75l-4.5,1.25l2.25,4.5l4.5,6l-3,4.75l-6.5,2l-2.25,5.75
	l-6.5,3.5L311,302l-8.5-7.75L288.25,293l-6.5-7.5H271.5l-5.5,1.25l-3.75-3.5l-9.25-4l-3.5,4.25l-7.25-2.25l-3.5-3.25l-4.25,3
	l-1.75,4.5l-4.25,2.75l-8.5-4.75l-0.5-7.25l-2.75-4.25l-6.5-1.75l-2.5-9.75l-3.5-5.25l-5.5,1l-5.25-1l-8.5,2l-3,3.75l-0.5-9.75
	l7.25-11.25l9.25-7.25l-0.25-4l-11.5,0.25l-1.75-3.75l3.25-8.75l13.25-5.25l11.5-6l24.5-20l1-7.25l17.75-8l18.25,5.25l9.75-0.5
	l16.5,6l16.25,7l18,7l18.25,9.75L370,213l14.25,1.75l11.75,8l3.25,8.5L395,240.5l-0.25,6.5l7.75,4.25l10.5,1.25l10.75-0.75l12.25,1
	l8.75,7.25l2.75,9.75l-13,3.25l-12.25,6l-1.75,7.25l4.5,7.5l8.25,3.5l9-6.5l8.25-2.5l2.5,5l1.5,12.75l6.75,7l7.75-0.25l2.75-12.25
	l6,0.75v-6L476,287.5l10.25-2.75l11.25-1l0.75,7l8.25,1.25l6.75-1.25l6,2.25l4,4.75l9.5-1l4.25-8l8-1.25l9.25,2.5h29.25l7.5-3.75
	l9,3.25l12.5,1.5l15.75-1.25l19-3.75l11,10.75l10.5,12V313.5z M611.25,478.5l6.5,5.75L616,495.5l-7.25,12l-3.75,8.75l-5.75,4.75
	l-6-3l-2.5-7.5l-2.5-5.75L602.5,483L611.25,478.5z"/>
</svg>
