<?xml version="1.0" encoding="utf-8"?>
<!-- Generator: Adobe Illustrator 16.0.0, SVG Export Plug-In . SVG Version: 6.00 Build 0)  -->
<!DOCTYPE svg PUBLIC "-//W3C//DTD SVG 1.1//EN" "http://www.w3.org/Graphics/SVG/1.1/DTD/svg11.dtd">
<svg version="1.1" id="Selected_Items" xmlns="http://www.w3.org/2000/svg" xmlns:xlink="http://www.w3.org/1999/xlink" x="0px"
	 y="0px" width="1024px" height="680px" viewBox="0 0 1024 680" enable-background="new 0 0 1024 680" xml:space="preserve">
<path fill-rule="evenodd" clip-rule="evenodd" d="M601.7,391.2l7.5,10.5l11,10.5l2.625,8.3L612,427.25l11.25-0.75l-1.75,12.75
	L616.75,451l-4,8.5l-7,5.75L602,472l-9.5,14.25l-6,6.5l-5,3.75l-10,5.7l-11.75,9.25l-11,1.75l-12,0.5l-9,5.75l-10.5,3.75l-20.5-0.75
	l-1,6.25l4.5,2l2.75,8l-8,5.5l-6.75,7.25l-8.75-0.25l-10.25-5l-0.5-7.25l5.25-4.75l11.75-4.25l-0.5-4l-1.75-5.25l-10.25-3
	L463,519.45l-5,1.3l-13.75,12.2l2.75,8.25l2.5,10l4.75,5.75l-10.5-2.75l-7.5-12l0.25-11.45l1-11.75l-10-11.75l-5,3.75l-6.5-8.5l-3,9
	l-6,2V505l-7.5,5l-8-1.5l-4-7.5l-7.5-0.5l2.5-17.5l-2-8l-11,4l-6.5-11l-3.25-19.5l4.75-4l8,0.5l3.5-7l8-7l5,5l7,5.5l4.5,13.5l10-11
	l6.5-2l-2,13.5l4.5-0.25l-1.25,8.25l-3.5,6l9.5-7.25l2,3.5l3.25-2.75v-8.25l4.5-4l4.75-3l0.75-3.5l1.75-3.5L452,440.5l4.5-4.25
	L466,437l4.5-5.5l7.25-0.75l9-6.75l-0.5-8.5l5-3.25l8.75,0.25l3.5,2.75l4.25-0.75l9.25-3.25l6.75,3.5l9-1l0.75-7.75l4.5-2l5,3.5
	l7.5-5.75l4,2l2.25,2l4.75-1.25l1.25-3.5h5.75l6,1.25l3.5-3.5l5.25-1.75l2.5,2.25l3-5.5l4.25-4.25l6.725-4.475L601.7,391.2z
	 M611.25,478.5l6.5,5.75L616,495.5l-7.25,12l-3.75,8.75l-5.75,4.75l-6-3l-2.5-7.5l-2.5-5.75L602.5,483L611.25,478.5z"/>
</svg>
