<?xml version="1.0" encoding="utf-8"?>
<!-- Generator: Adobe Illustrator 16.0.0, SVG Export Plug-In . SVG Version: 6.00 Build 0)  -->
<!DOCTYPE svg PUBLIC "-//W3C//DTD SVG 1.1//EN" "http://www.w3.org/Graphics/SVG/1.1/DTD/svg11.dtd">
<svg version="1.1" id="Selected_Items" xmlns="http://www.w3.org/2000/svg" xmlns:xlink="http://www.w3.org/1999/xlink" x="0px"
	 y="0px" width="1024px" height="680px" viewBox="0 0 1024 680" enable-background="new 0 0 1024 680" xml:space="preserve">
<path fill-rule="evenodd" clip-rule="evenodd" d="M611.25,478.5l6.5,5.75L616,495.5l-7.25,12l-3.75,8.75l-5.75,4.75l-6-3l-2.5-7.5
	l-2.5-5.75L602.5,483L611.25,478.5z M690.7,147l7.5,0.25l1.5,10.25l5.25-2.5l10.5,4.5l-0.25-9.75l8,2.5l8.25,9.5l22.25,36.5
	l-5.25,14.5l8.5,10l1,16.25l-15.5,4l-3.75-7.75l-6.25-3.5L729.2,246l-7.95,11l-4,12.5l-7,12L698,284.75l-7.5-3.5l-7,5.5l-7,7.5
	l0.75,9.5l-7,8.5l-9.5,5.25l-3,10.75l-11.25,7.5l-9,2.25l5.75-9.75l-2.5-6.5l-11.8,1.475l-4.5,1.275l-16,9.5l-0.5-6l2.5-10.5l6.5-4
	l-5-7l-7.65,4.5l-3.6,9.2l-10,9.5l-8.5,4.5l2.5,7l10.5,5l9.5-6l11.5,4l8.5,2v9.5l-8,1.5l-8.5,3.5l0.5,6.5l-10.5,3.5l-6,6.5l6,3
	l3.5,11l7.5,10.5l11,10.5l2.625,8.3L612,427.25l11.25-0.75l-1.75,12.75L616.75,451l-4,8.5l-7,5.75L602,472l-9.5,14.25l-6,6.5
	l-5,3.75l-10,5.7l-11.75,9.25l-11,1.75l-12,0.5l-9,5.75l-10.5,3.75l-20.5-0.75l-1,6.25l4.5,2l2.75,8l-8,5.5l-6.75,7.25l-8.75-0.25
	l-10.25-5l-0.5-7.25l5.25-4.75l11.75-4.25l-0.5-4l-1.75-5.25l-10.25-3l-9.4,1.6l-4.6-6.25l-10.8-6.899l4.65-7.7l-9.25-6.95l-5.4,5.4
	l-8.45-0.75l-9.25,8.449l-12.3-3.85l-4.6,9.2l-6.15-6.15l-9.25,6.95l-23.05,3.05l-10-10.75l2.3-14.6l2.3-21.55l-10.75,5.399
	L334.6,457.65l23.1-28.45l15.4-4.601l-3.85-9.25l-18.45,0.801l-15.4,12.3l-36.95-11.55l-17.65-0.75l-1.55-14.65l-18.45-12.3
	l-12.35-20.75l-16.15-6.95l-13.05-1.5l-6.95-20.8l-16.9-10l5.4-10l-16.95-28.45l3.85-19.2l23.85,14.6l7.7,17.7L230,304.6l6.15-11.55
	l10-0.75l12.3-2.3l16.95,10.75l5.4-2.95l27.65,9.9l10.8,13.1l23.05-10l39.25,17.65l43.05,2.35c-1.167-2.8-2.45-5.65-3.85-8.55
	c-2.833-5.767-4.883-8.817-6.15-9.15c-1.267-0.333-3.95-2.233-8.05-5.7l-5.8-5.1l8.5-13.05l16.9,8.45l20.8,20l1.5,26.149l13.1-6.899
	l10-9.25l4.775-20l12.925-4.6l-1.55,13.85l-2.3,10L500,330l30-20l16.9-9.2l16.949-1.55l17.7,8.45l11.5-2.3l10.8-13.1l14.601-1.5
	l5.399,7.65l6.9-9.2l2.3-16.15v-18.45L620,239.25l9.25-25.4l-2.35-19.2l-23.851-10.8l-5.35-18.45L580,151.55l10-24.65l-2.3-18.45
	L601.55,99l54.601,18.7l17.699,21.975l12.65,2.075L690.7,147z"/>
<path fill-rule="evenodd" clip-rule="evenodd" fill="none" stroke="#00FFFF" stroke-width="5" stroke-linecap="round" stroke-linejoin="round" stroke-miterlimit="3" d="
	M690.7,147l-4.2-5.25l-12.65-2.075L656.15,117.7L601.55,99l-13.85,9.45l2.3,18.45l-10,24.65l17.7,13.85l5.35,18.45l23.851,10.8
	l2.35,19.2l-9.25,25.4l13.05,15.4v18.45l-2.3,16.15l-6.9,9.2l-5.399-7.65l-14.601,1.5l-10.8,13.1l-11.5,2.3l-17.7-8.45L546.9,300.8
	L530,310l-30,20l-14.6-3.05l2.3-10l1.55-13.85l-12.925,4.6l-4.775,20l-10,9.25l-13.1,6.899l-1.5-26.149l-20.8-20l-16.9-8.45
	l-8.5,13.05l5.8,5.1c4.1,3.467,6.784,5.367,8.05,5.7c1.267,0.333,3.316,3.383,6.15,9.15c1.4,2.9,2.683,5.75,3.85,8.55l-43.05-2.35
	L342.3,310.8l-23.05,10l-10.8-13.1l-27.65-9.9l-5.4,2.95L258.45,290l-12.3,2.3l-10,0.75L230,304.6l-10.75-0.75l-7.7-17.7
	l-23.85-14.6l-3.85,19.2l16.95,28.45l-5.4,10l16.9,10l6.95,20.8l13.05,1.5l16.15,6.95l12.35,20.75l18.45,12.3l1.55,14.65l17.65,0.75
	l36.95,11.55l15.4-12.3l18.45-0.801l3.85,9.25l-15.4,4.601l-23.1,28.45l14.65,14.649L360,466.9l-2.3,21.55l-2.3,14.6l10,10.75
	l23.05-3.05l9.25-6.95l6.15,6.15l4.6-9.2l12.3,3.85l9.25-8.449l8.45,0.75l5.4-5.4l9.25,6.95l-4.65,7.7l10.8,6.899l4.6,6.25l9.4-1.6
	l10.25,3l1.75,5.25l0.5,4L474,534.2l-5.25,4.75l0.5,7.25l10.25,5l8.75,0.25l6.75-7.25l8-5.5l-2.75-8l-4.5-2l1-6.25l20.5,0.75
	l10.5-3.75l9-5.75l12-0.5l11-1.75l11.75-9.25l10-5.7l5-3.75l6-6.5L602,472l3.75-6.75l7-5.75l4-8.5l4.75-11.75l1.75-12.75L612,427.25
	l10.825-6.75l-2.625-8.3l-11-10.5l-7.5-10.5l-3.5-11l-6-3l6-6.5l10.5-3.5l-0.5-6.5l8.5-3.5l8-1.5v-9.5l-8.5-2l-11.5-4l-9.5,6
	l-10.5-5l-2.5-7l8.5-4.5l10-9.5l3.6-9.2l7.65-4.5l5,7l-6.5,4l-2.5,10.5l0.5,6l16-9.5l4.5-1.275l11.8-1.475l2.5,6.5L637.5,338l9-2.25
	l11.25-7.5l3-10.75l9.5-5.25l7-8.5l-0.75-9.5l7-7.5l7-5.5l7.5,3.5l12.25-3.25l7-12l4-12.5l7.95-11l3.25-14.25l6.25,3.5l3.75,7.75
	l15.5-4l-1-16.25l-8.5-10l5.25-14.5l-22.25-36.5l-8.25-9.5l-8-2.5l0.25,9.75l-10.5-4.5l-5.25,2.5l-1.5-10.25L690.7,147z
	 M611.25,478.5l-8.75,4.5l-14.25,21.75l2.5,5.75l2.5,7.5l6,3l5.75-4.75l3.75-8.75l7.25-12l1.75-11.25L611.25,478.5z"/>
</svg>
