<?xml version="1.0" encoding="utf-8"?>
<!-- Generator: Adobe Illustrator 16.0.0, SVG Export Plug-In . SVG Version: 6.00 Build 0)  -->
<!DOCTYPE svg PUBLIC "-//W3C//DTD SVG 1.1//EN" "http://www.w3.org/Graphics/SVG/1.1/DTD/svg11.dtd">
<svg version="1.1" id="Selected_Items" xmlns="http://www.w3.org/2000/svg" xmlns:xlink="http://www.w3.org/1999/xlink" x="0px"
	 y="0px" width="1024px" height="680px" viewBox="0 0 1024 680" enable-background="new 0 0 1024 680" xml:space="preserve">
<path fill-rule="evenodd" clip-rule="evenodd" d="M415.5,258.5l10.5,2l24-1l11.95,5l11,7.5l5-4.5l11.5-1.5l28.5,4.5l11.5-2.5l13-0.5
	l22.5,1l7.5,7.5l0.5,9.5l8,5.5l5.5,9h11l6.5-7l14.5,4.5l0.5,7.5l-7.5,1.8l-7.15,4.2l-3.6,9.2l-10,9.5l-8.5,4.5l4.25,9.8l-7.5,10.5
	l-14,12.5l-11.5,0.5l-9.5,9l-21.5,1l-36-7l-13.5,4L457.5,376l3.45-6.5l-8.45-3.5l-15-3l10.5-4.5l-6.5-9.5l-8.5-3l-3.5-6.5l1.5-8
	l-2.5-13l-6-4.5l-9.5-11l-16-3.5l-13-4.5l-7,2.5l-10.5-2l-18-0.5l-13.5,3v6l9.5,5.5L340,315l3.5,6.5H335l-9,7l-13-1l-3.5-5.5
	l1.5-20.5l-15.5-10l-6.5-12l2.5-9l2.5-13l2.5-8l12-2.5l13.5,2.5l7.5,11L343,267l10,1l4.5-6.5l-1-11l-2-8.5l9.5-4.5l18.5,2.5l11,4
	l6.5,7.5l3.5,8L415.5,258.5z M474.95,385l11-7l22.5,6l15.5,2h17l10,1.5l1-7.5l8-4.5l12-2l4-7l13-11.5l6.25-8.8l9.5-6l11.5,4l8.5,2
	v9.5l-8,1.5l-8.5,3.5l0.5,6.5l-10.5,3.5l-6,6.5l6,3l3.5,11l7.5,10.5l11,10.5l2.625,8.3L612,427.25l11.25-0.75l-1.75,12.75
	L616.75,451l-4,8.5l-7,5.75L602,472l-9.5,14.25l-6,6.5l-5,3.75l-10,5.7l-11.75,9.25l-11,1.75l-12,0.5l-9,5.75l-10.5,3.75l-20.5-0.75
	l-1,6.25l4.5,2l2.75,8l-8,5.5l-6.75,7.25l-8.75-0.25l-10.25-5l-0.5-7.25l5.25-4.75l11.75-4.25l-0.5-4l-1.75-5.25l-10.25-3
	L463,519.45l-5,1.3l-13.75,12.2l2.75,8.25l2.5,10l4.75,5.75l-10.5-2.75l-7.5-12l0.25-11.45l1-11.75l-10-11.75l-5,3.75l-6.5-8.5l-3,9
	l-6,2V505l-7.5,5l-8-1.5l-4-7.5l1.5-14.5l2.5-8.5l-6-2l-8-7.5L383,458l6.5-5.5l4-6.5l-2-9.5l1.5-9.5l8.5,6l5,11.5l8.5-13l10,0.5
	l5.5-12l3-13h8l2.5-20l14.5,2L474.95,385z M611.25,478.5l6.5,5.75L616,495.5l-7.25,12l-3.75,8.75l-5.75,4.75l-6-3l-2.5-7.5
	l-2.5-5.75L602.5,483L611.25,478.5z"/>
<path fill-rule="evenodd" clip-rule="evenodd" fill="none" stroke="#00FFFF" stroke-width="5" stroke-linecap="round" stroke-linejoin="round" stroke-miterlimit="3" d="
	M415.5,258.5l-12,1l-3.5-8l-6.5-7.5l-11-4l-18.5-2.5l-9.5,4.5l2,8.5l1,11L353,268l-10-1l-13.5-6.5l-7.5-11l-13.5-2.5l-12,2.5l-2.5,8
	l-2.5,13l-2.5,9l6.5,12l15.5,10l-1.5,20.5l3.5,5.5l13,1l9-7h8.5L340,315l4.5-5.5L335,304v-6l13.5-3l18,0.5l10.5,2l7-2.5l13,4.5
	l16,3.5l9.5,11l6,4.5l2.5,13l-1.5,8l3.5,6.5l8.5,3l6.5,9.5l-10.5,4.5l15,3l8.45,3.5l-3.45,6.5l15.45-1.5l13.5-4l36,7l21.5-1l9.5-9
	l11.5-0.5l14-12.5l7.5-10.5l-4.25-9.8l8.5-4.5l10-9.5l3.6-9.2l7.15-4.2l7.5-1.8l-0.5-7.5l-14.5-4.5l-6.5,7h-11l-5.5-9l-8-5.5
	l-0.5-9.5l-7.5-7.5l-22.5-1l-13,0.5l-11.5,2.5l-28.5-4.5l-11.5,1.5l-5,4.5l-11-7.5l-11.95-5l-24,1L415.5,258.5z M474.95,385l11-7
	l22.5,6l15.5,2h17l10,1.5l1-7.5l8-4.5l12-2l4-7l13-11.5l6.25-8.8l9.5-6l11.5,4l8.5,2v9.5l-8,1.5l-8.5,3.5l0.5,6.5l-10.5,3.5l-6,6.5
	l6,3l3.5,11l7.5,10.5l11,10.5l2.625,8.3L612,427.25l11.25-0.75l-1.75,12.75L616.75,451l-4,8.5l-7,5.75L602,472l-9.5,14.25l-6,6.5
	l-5,3.75l-10,5.7l-11.75,9.25l-11,1.75l-12,0.5l-9,5.75l-10.5,3.75l-20.5-0.75l-1,6.25l4.5,2l2.75,8l-8,5.5l-6.75,7.25l-8.75-0.25
	l-10.25-5l-0.5-7.25l5.25-4.75l11.75-4.25l-0.5-4l-1.75-5.25l-10.25-3L463,519.45l-5,1.3l-13.75,12.2l2.75,8.25l2.5,10l4.75,5.75
	l-10.5-2.75l-7.5-12l0.25-11.45l1-11.75l-10-11.75l-5,3.75l-6.5-8.5l-3,9l-6,2V505l-7.5,5l-8-1.5l-4-7.5l1.5-14.5l2.5-8.5l-6-2
	l-8-7.5L383,458l6.5-5.5l4-6.5l-2-9.5l1.5-9.5l8.5,6l5,11.5l8.5-13l10,0.5l5.5-12l3-13h8l2.5-20l14.5,2L474.95,385z M611.25,478.5
	l-8.75,4.5l-14.25,21.75l2.5,5.75l2.5,7.5l6,3l5.75-4.75l3.75-8.75l7.25-12l1.75-11.25L611.25,478.5z"/>
</svg>
