<?xml version="1.0" encoding="utf-8"?>
<!-- Generator: Adobe Illustrator 16.0.0, SVG Export Plug-In . SVG Version: 6.00 Build 0)  -->
<!DOCTYPE svg PUBLIC "-//W3C//DTD SVG 1.1//EN" "http://www.w3.org/Graphics/SVG/1.1/DTD/svg11.dtd">
<svg version="1.1" id="Selected_Items" xmlns="http://www.w3.org/2000/svg" xmlns:xlink="http://www.w3.org/1999/xlink" x="0px"
	 y="0px" width="1024px" height="680px" viewBox="0 0 1024 680" enable-background="new 0 0 1024 680" xml:space="preserve">
<path fill-rule="evenodd" clip-rule="evenodd" d="M611.25,478.5l6.5,5.75L616,495.5l-7.25,12l-3.75,8.75l-5.75,4.75l-6-3l-2.5-7.5
	l-2.5-5.75L602.5,483L611.25,478.5z M472.5,313.5l0.5-12l7.45-7l14.5-5.5l17.5,4h12l10,4.5l1.5-10l26,1.5l21.5-2.5l15-7.375
	l22.5,5.875l12.5,14l1.5,22.5l-10.5,3l-16,9.5l-0.5-6l2.5-10.5l6.5-4l-5-7l-7.65,4.5l-3.6,9.2l-10,9.5l-8.5,4.5l2.5,7l10.5,5l9.5-6
	l11.5,4l8.5,2v9.5l-8,1.5l-8.5,3.5l0.5,6.5l-10.5,3.5l-6,6.5l6,3l3.5,11l7.5,10.5l11,10.5l2.625,8.3L612,427.25l11.25-0.75
	l-1.75,12.75L616.75,451l-4,8.5l-7,5.75L602,472l-9.5,14.25l-6,6.5l-5,3.75l-12-3.75l-6.75,3.25l-2.75-1.5l-1-5l-3.25-0.75
	L553.5,485l-4.25,1.25l-1.5,4L542.5,487l-5.75,3.5l-3.3-2.5l0.5-7l-6.5-0.5l-8,7l-10-4l-11.5-13.5l-3.5-11l-7-1.5h-9.95l1-11.5l-5-7
	l-9.5-1.5l-11.5,0.5l-11.5-4l-6.5-7.5H422l-2.5-7l4.5-11l4-16l6.5-8l14,0.5l-7.5-10.5l-3.5-11.5l1.5-12l7-3.5l7.5-0.5l-2-9l7-1
	l7.5-7.5L472.5,313.5z"/>
</svg>
