<?xml version="1.0" encoding="utf-8"?>
<!-- Generator: Adobe Illustrator 16.0.0, SVG Export Plug-In . SVG Version: 6.00 Build 0)  -->
<!DOCTYPE svg PUBLIC "-//W3C//DTD SVG 1.1//EN" "http://www.w3.org/Graphics/SVG/1.1/DTD/svg11.dtd">
<svg version="1.1" id="Selected_Items" xmlns="http://www.w3.org/2000/svg" xmlns:xlink="http://www.w3.org/1999/xlink" x="0px"
	 y="0px" width="1024px" height="680px" viewBox="0 0 1024 680" enable-background="new 0 0 1024 680" xml:space="preserve">
<path fill-rule="evenodd" clip-rule="evenodd" d="M663.5,315l-0.25,5.75l4.25,8l8.75,13l0.25,4.5l-25.5-1l-2.5-4L643,344l-5.5-6
	l5.75-9.75l-2.5-6.5l-11.8,1.475l-4.5,1.275l-16,9.5l-0.5-6l2.5-10.5l6.5-4l-5-7l-7.65,4.5l-3.6,9.2l-10,9.5l-8.5,4.5l2.5,7l10.5,5
	l9.5-6l11.5,4l8.5,2v9.5l-8,1.5l-8.5,3.5l0.5,6.5l-10.5,3.5l-6,6.5l6,3l3.5,11l7.5,10.5l11,10.5l-14.45-1.7l-5.5-9.75L589,401
	l-6.5,7.5l-6,8.75l-8.5-0.5l-7-1.25l-3.25-7.25l-7-1.25l-1.25,10.25l-7.75-0.5L536,411l-5.25-6l-6.5,6.25l-6.75-6.75l-9.5-2.55
	l-1.05-4.45l-9.5-13l-2.5-17l-9,2.5l-9.5-7.5l-8.5-1l-14.95-7l-12.5,0.65l-6.25-11.9l-9-8.75l0.25-5l-3.75-3.75L420.5,318l7.25,2.5
	l11.25,1l-9-6.5l-5.75-2.25L418,306l-13.75-13.5l-0.75-4.75l-9.75,0.75l-9.25-10.25l-5.5-1.5l-4.25-4l-8.5,1.75L359,273l-17.5-0.75
	l-7.25-0.75l-4.5,1.25l2.25,4.5l4.5,6l-3,4.75l-6.5,2l-2.25,5.75l-6.5,3.5L311,302l-8.5-7.75L288.25,293l-6.5-7.5H271.5l-5.5,1.25
	l-3.75-3.5l-9.25-4l-3.5,4.25l-7.25-2.25l-3.5-3.25l-4.25,3l-1.75,4.5l-4.25,2.75l-8.5-4.75l-0.5-7.25l-2.75-4.25l-6.5-1.75
	l-2.5-9.75l-3.5-5.25l-5.5,1l-5.25-1l-8.5,2l-3,3.75l-0.5-9.75l7.25-11.25l9.25-7.25l-0.025-0.25L208,229l4,8.5l6,2l35.5-6.5l15-6.5
	l22,3.5l20,4l13-13.5l-3-6.5l11-20.4l3,1.15l18.25,9.75L370,213l14.25,1.75l11.75,8l3.25,8.5L395,240.5l-0.25,6.5l7.75,4.25
	l10.5,1.25l10.75-0.75l12.25,1l8.75,7.25l2.75,9.75l-13,3.25l-12.25,6l-1.75,7.25l4.5,7.5l8.25,3.5l9-6.5l8.25-2.5l2.5,5l1.2,10.25
	l13.75-3.5l4,5l-6,8.5l-2,10l11,2.5l5,3.5l-1.5,12l14.5-1l5,5l4.5,6l8,0.5l10-2l2.5-13.5l8-9.5l10-15l10-2l1.5-11l8-2.5l2.5,5.5
	l5-6.5l10,6l20,4l3.5-8.5l11.05-6l15.75-1.25l19-3.75l11,10.75l10.5,12v4.75L663.5,315z M438.25,371l3.5,5l4.75-9.5l-4.35-8.25
	l11.6,1l7,4l8.25,2.5l6.5,0.75l5.5,6.5l10.5-1l3.75,15.75l3.5,7l5,4.75l0.2,8.75l-5,2.25l-4.5,6l3.5,10.5l-2,8.5l-10-5.5v7.5l1.5,7
	l-3.5,14.5l-2.5,16l-7.5,2l-7-2.5l-5.5,4l3.5,6.5l-1,11l-9.45-2l-5-8l-6.5,6.5l-7-4l-3.5,8l2.5,6.5l12,11.5l-6.15,11.05l-4.6,16.65
	l0.25-11.45l1-11.75l-14.25-16.75v6l-7.5-5l-5-11l-3.75,8.2l-7.55-1.45l-3.5-8H384.5l4-14.5L390,466l-14,5.5l-4-17.5l-2-26.5
	l9.2-5.5l-0.45-10l5.5,4.5l5.25,8l3.5,6.5l2-6.5l5.25-2.5l4.25-15l5.75-2.75l4.5,0.5l15-11.75l-0.25-15L438.25,371z M612,427.25
	l11.25-0.75l-1.75,12.75L616.75,451l-4,8.5l-7,5.75L602,472l-9.5,14.25l-6,6.5l-5,3.75l-10,5.7l-11.75,9.25l-11,1.75l-12,0.5
	l-9,5.75l-10.5,3.75l-20.5-0.75l-1,6.25l4.5,2l2.75,8l-8,5.5l-6.75,7.25l-8.75-0.25l-10.25-5l-0.5-7.25l5.25-4.75l11.75-4.25l-0.5-4
	l-1.75-5.25l-10.25-3L463,519.45l-5,1.3l-11.75,12.95l0.75,7.5l2.5,10l4.75,5.75l-10.5-2.75l-2.25-12.4l1.35-11.25l10.25-16.75
	l-4.85-3.6l-7.4-7.4l-2.35-7.25l5,1l6-3.85l5.35,5.25l8.5,2.5l5.25-0.75l-0.35-13.4l-1.9-6.85l6.5,1l8.15-0.9l4.25-2.1l5.25-31.5
	l-0.5-7.7l4.6,1.1l3.65-0.35l3-10.9L498.1,418l4.15-4.9l9-3.6l10.5,6.25l6.75-1.75l1.75-2.75l4.25,5l7.5,4l10.75,1.25l1-9.25
	l5.75,7.75l9.25,1.25l7.5-0.25l10.25-9.75l3.5-4l8.25-1.75l3.25,6.75l5.5,3.25h5.5l9,0.85l1.325,4.15L612,427.25z M611.25,478.5
	l6.5,5.75L616,495.5l-7.25,12l-3.75,8.75l-5.75,4.75l-6-3l-2.5-7.5l-2.5-5.75L602.5,483L611.25,478.5z"/>
<path fill-rule="evenodd" clip-rule="evenodd" fill="none" stroke="#00FFFF" stroke-width="5" stroke-linecap="round" stroke-linejoin="round" stroke-miterlimit="3" d="
	M663.5,315l-0.25,5.75l4.25,8l8.75,13l0.25,4.5l-25.5-1l-2.5-4L643,344l-5.5-6l5.75-9.75l-2.5-6.5l-11.8,1.475l-4.5,1.275l-16,9.5
	l-0.5-6l2.5-10.5l6.5-4l-5-7l-7.65,4.5l-3.6,9.2l-10,9.5l-8.5,4.5l2.5,7l10.5,5l9.5-6l11.5,4l8.5,2v9.5l-8,1.5l-8.5,3.5l0.5,6.5
	l-10.5,3.5l-6,6.5l6,3l3.5,11l7.5,10.5l11,10.5l-14.45-1.7l-5.5-9.75L589,401l-6.5,7.5l-6,8.75l-8.5-0.5l-7-1.25l-3.25-7.25l-7-1.25
	l-1.25,10.25l-7.75-0.5L536,411l-5.25-6l-6.5,6.25l-6.75-6.75l-9.5-2.55l-1.05-4.45l-9.5-13l-2.5-17l-9,2.5l-9.5-7.5l-8.5-1
	l-14.95-7l-12.5,0.65l-6.25-11.9l-9-8.75l0.25-5l-3.75-3.75L420.5,318l7.25,2.5l11.25,1l-9-6.5l-5.75-2.25L418,306l-13.75-13.5
	l-0.75-4.75l-9.75,0.75l-9.25-10.25l-5.5-1.5l-4.25-4l-8.5,1.75L359,273l-17.5-0.75l-7.25-0.75l-4.5,1.25l2.25,4.5l4.5,6l-3,4.75
	l-6.5,2l-2.25,5.75l-6.5,3.5L311,302l-8.5-7.75L288.25,293l-6.5-7.5H271.5l-5.5,1.25l-3.75-3.5l-9.25-4l-3.5,4.25l-7.25-2.25
	l-3.5-3.25l-4.25,3l-1.75,4.5l-4.25,2.75l-8.5-4.75l-0.5-7.25l-2.75-4.25l-6.5-1.75l-2.5-9.75l-3.5-5.25l-5.5,1l-5.25-1l-8.5,2
	l-3,3.75l-0.5-9.75l7.25-11.25l9.25-7.25l-0.025-0.25L208,229l4,8.5l6,2l35.5-6.5l15-6.5l22,3.5l20,4l13-13.5l-3-6.5l11-20.4l3,1.15
	l18.25,9.75L370,213l14.25,1.75l11.75,8l3.25,8.5L395,240.5l-0.25,6.5l7.75,4.25l10.5,1.25l10.75-0.75l12.25,1l8.75,7.25l2.75,9.75
	l-13,3.25l-12.25,6l-1.75,7.25l4.5,7.5l8.25,3.5l9-6.5l8.25-2.5l2.5,5l1.2,10.25l13.75-3.5l4,5l-6,8.5l-2,10l11,2.5l5,3.5l-1.5,12
	l14.5-1l5,5l4.5,6l8,0.5l10-2l2.5-13.5l8-9.5l10-15l10-2l1.5-11l8-2.5l2.5,5.5l5-6.5l10,6l20,4l3.5-8.5l11.05-6l15.75-1.25l19-3.75
	l11,10.75l10.5,12v4.75L663.5,315z M438.25,371l3.5,5l4.75-9.5l-4.35-8.25l11.6,1l7,4l8.25,2.5l6.5,0.75l5.5,6.5l10.5-1l3.75,15.75
	l3.5,7l5,4.75l0.2,8.75l-5,2.25l-4.5,6l3.5,10.5l-2,8.5l-10-5.5v7.5l1.5,7l-3.5,14.5l-2.5,16l-7.5,2l-7-2.5l-5.5,4l3.5,6.5l-1,11
	l-9.45-2l-5-8l-6.5,6.5l-7-4l-3.5,8l2.5,6.5l12,11.5l-6.15,11.05l-4.6,16.65l0.25-11.45l1-11.75l-14.25-16.75v6l-7.5-5l-5-11
	l-3.75,8.2l-7.55-1.45l-3.5-8H384.5l4-14.5L390,466l-14,5.5l-4-17.5l-2-26.5l9.2-5.5l-0.45-10l5.5,4.5l5.25,8l3.5,6.5l2-6.5
	l5.25-2.5l4.25-15l5.75-2.75l4.5,0.5l15-11.75l-0.25-15L438.25,371z M612,427.25l11.25-0.75l-1.75,12.75L616.75,451l-4,8.5l-7,5.75
	L602,472l-9.5,14.25l-6,6.5l-5,3.75l-10,5.7l-11.75,9.25l-11,1.75l-12,0.5l-9,5.75l-10.5,3.75l-20.5-0.75l-1,6.25l4.5,2l2.75,8
	l-8,5.5l-6.75,7.25l-8.75-0.25l-10.25-5l-0.5-7.25l5.25-4.75l11.75-4.25l-0.5-4l-1.75-5.25l-10.25-3L463,519.45l-5,1.3l-11.75,12.95
	l0.75,7.5l2.5,10l4.75,5.75l-10.5-2.75l-2.25-12.4l1.35-11.25l10.25-16.75l-4.85-3.6l-7.4-7.4l-2.35-7.25l5,1l6-3.85l5.35,5.25
	l8.5,2.5l5.25-0.75l-0.35-13.4l-1.9-6.85l6.5,1l8.15-0.9l4.25-2.1l5.25-31.5l-0.5-7.7l4.6,1.1l3.65-0.35l3-10.9L498.1,418l4.15-4.9
	l9-3.6l10.5,6.25l6.75-1.75l1.75-2.75l4.25,5l7.5,4l10.75,1.25l1-9.25l5.75,7.75l9.25,1.25l7.5-0.25l10.25-9.75l3.5-4l8.25-1.75
	l3.25,6.75l5.5,3.25h5.5l9,0.85l1.325,4.15L612,427.25z M611.25,478.5l-8.75,4.5l-14.25,21.75l2.5,5.75l2.5,7.5l6,3l5.75-4.75
	l3.75-8.75l7.25-12l1.75-11.25L611.25,478.5z"/>
</svg>
