<?xml version="1.0" encoding="utf-8"?>
<!-- Generator: Adobe Illustrator 16.0.0, SVG Export Plug-In . SVG Version: 6.00 Build 0)  -->
<!DOCTYPE svg PUBLIC "-//W3C//DTD SVG 1.1//EN" "http://www.w3.org/Graphics/SVG/1.1/DTD/svg11.dtd">
<svg version="1.1" id="Selected_Items" xmlns="http://www.w3.org/2000/svg" xmlns:xlink="http://www.w3.org/1999/xlink" x="0px"
	 y="0px" width="1024px" height="680px" viewBox="0 0 1024 680" enable-background="new 0 0 1024 680" xml:space="preserve">
<polygon fill-rule="evenodd" clip-rule="evenodd" points="476,376.5 483.5,371 493.75,367.25 504.5,366.75 514.25,365.25 
	518.25,358.75 522,354 528.5,350.5 535,346 543.75,348 551.75,341 555.75,328.5 563.25,326 575,325.25 580,329.5 582.2,334.2 
	584.7,341.2 595.2,346.2 604.7,340.2 616.2,344.2 624.7,346.2 624.7,355.7 616.7,357.2 608.2,360.7 608.7,367.2 598.2,370.7 
	592.2,377.2 598.2,380.2 601.7,391.2 605.45,396.45 601,402 591.5,402 577.75,410.25 568.75,416.25 563.75,415 539.75,412.5 
	528.5,403.25 510,393.25 488.5,388.5 478.25,380.75 "/>
<polygon fill-rule="evenodd" clip-rule="evenodd" fill="none" stroke="#00FFFF" stroke-width="5" stroke-linecap="round" stroke-linejoin="round" stroke-miterlimit="3" points="
	476,376.5 478.25,380.75 488.5,388.5 510,393.25 528.5,403.25 539.75,412.5 563.75,415 568.75,416.25 577.75,410.25 591.5,402 
	601,402 605.45,396.45 601.7,391.2 598.2,380.2 592.2,377.2 598.2,370.7 608.7,367.2 608.2,360.7 616.7,357.2 624.7,355.7 
	624.7,346.2 616.2,344.2 604.7,340.2 595.2,346.2 584.7,341.2 582.2,334.2 580,329.5 575,325.25 563.25,326 555.75,328.5 
	551.75,341 543.75,348 535,346 528.5,350.5 522,354 518.25,358.75 514.25,365.25 504.5,366.75 493.75,367.25 483.5,371 "/>
</svg>
