<?xml version="1.0" encoding="utf-8"?>
<!-- Generator: Adobe Illustrator 16.0.0, SVG Export Plug-In . SVG Version: 6.00 Build 0)  -->
<!DOCTYPE svg PUBLIC "-//W3C//DTD SVG 1.1//EN" "http://www.w3.org/Graphics/SVG/1.1/DTD/svg11.dtd">
<svg version="1.1" id="Selected_Items" xmlns="http://www.w3.org/2000/svg" xmlns:xlink="http://www.w3.org/1999/xlink" x="0px"
	 y="0px" width="1024px" height="680px" viewBox="0 0 1024 680" enable-background="new 0 0 1024 680" xml:space="preserve">
<path fill-rule="evenodd" clip-rule="evenodd" d="M611.25,478.5l6.5,5.75L616,495.5l-7.25,12l-3.75,8.75l-5.75,4.75l-6-3l-2.5-7.5
	l-2.5-5.75L602.5,483L611.25,478.5z M468.4,340l16.2-1.55l10.75,1.55l10.4-4.65l7.3,0.4l8.851-17.3l8.05,6.9l6.149-2.65l6.15-5.4
	l4.65,5l7.3,2.3h11.55l13.45,3.1l3,6.5l2.5,7l10.5,5l9.5-6l11.5,4l8.5,2v9.5l-8,1.5l-8.5,3.5l0.5,6.5l-10.5,3.5l-6,6.5l6,3l3.5,11
	l7.5,10.5l11,10.5l2.625,8.3L612,427.25l11.25-0.75l-1.75,12.75L616.75,451l-4,8.5l-7,5.75L602,472l-9.5,14.25l-6,6.5l-5,3.75
	l-10,5.7l-11.75,9.25l-11,1.75l-12,0.5l-9,5.75l-10.5,3.75l-20.5-0.75l-1,6.25l4.5,2l2.75,8l-8,5.5l-6.75,7.25l-8.75-0.25l-10.25-5
	l-0.5-7.25l5.25-4.75l11.75-4.25l-0.5-4l-1.75-5.25l-10.25-3l-4.8,0.825l-1.95-8.176l-7.7-7.649l1.15-6.95l-9.6-0.4l-8.85-18.05
	l3.45-11.55l6.15-1.9l2.7-4.25l-6.55-1.149v-6.15l-6.5-0.399l-8.5,5l1.15-17.7l8.1-2.3l-2.3-10l-7.3,3.449l-6.15-6.55l4.2-3.85
	l-3.45-8.05l6.9-15l1.55,7.699l9.25-2.699l-4.25-4.65l1.95-4.2l10-1.55l5.35-14.2h-4.2l-2.3-6.95L438.4,370l2.7-17.35l-12.3-9.2
	l5.4-6.95l5-2.3l6.55,2.3l9.6,6.95l8.85-1.55L468.4,340z"/>
<path fill-rule="evenodd" clip-rule="evenodd" fill="none" stroke="#00FFFF" stroke-width="5" stroke-linecap="round" stroke-linejoin="round" stroke-miterlimit="3" d="
	M468.4,340l-4.2,1.9l-8.85,1.55l-9.6-6.95l-6.55-2.3l-5,2.3l-5.4,6.95l12.3,9.2L438.4,370l12.35,0.35l2.3,6.95h4.2l-5.35,14.2
	l-10,1.55l-1.95,4.2l4.25,4.65l-9.25,2.699l-1.55-7.699l-6.9,15l3.45,8.05l-4.2,3.85l6.15,6.55l7.3-3.449l2.3,10l-8.1,2.3
	l-1.15,17.7l8.5-5l6.5,0.399v6.15l6.55,1.149l-2.7,4.25l-6.15,1.9l-3.45,11.55l8.85,18.05l9.6,0.4l-1.15,6.95l7.7,7.649l1.95,8.176
	l4.8-0.825l10.25,3l1.75,5.25l0.5,4L474,534.2l-5.25,4.75l0.5,7.25l10.25,5l8.75,0.25l6.75-7.25l8-5.5l-2.75-8l-4.5-2l1-6.25
	l20.5,0.75l10.5-3.75l9-5.75l12-0.5l11-1.75l11.75-9.25l10-5.7l5-3.75l6-6.5L602,472l3.75-6.75l7-5.75l4-8.5l4.75-11.75l1.75-12.75
	L612,427.25l10.825-6.75l-2.625-8.3l-11-10.5l-7.5-10.5l-3.5-11l-6-3l6-6.5l10.5-3.5l-0.5-6.5l8.5-3.5l8-1.5v-9.5l-8.5-2l-11.5-4
	l-9.5,6l-10.5-5l-2.5-7l-3-6.5l-13.45-3.1H554.2l-7.3-2.3l-4.65-5l-6.15,5.4l-6.149,2.65l-8.05-6.9l-8.851,17.3l-7.3-0.4l-10.4,4.65
	l-10.75-1.55L468.4,340z M611.25,478.5l-8.75,4.5l-14.25,21.75l2.5,5.75l2.5,7.5l6,3l5.75-4.75l3.75-8.75l7.25-12l1.75-11.25
	L611.25,478.5z"/>
</svg>
