<?xml version="1.0" encoding="utf-8"?>
<!-- Generator: Adobe Illustrator 16.0.0, SVG Export Plug-In . SVG Version: 6.00 Build 0)  -->
<!DOCTYPE svg PUBLIC "-//W3C//DTD SVG 1.1//EN" "http://www.w3.org/Graphics/SVG/1.1/DTD/svg11.dtd">
<svg version="1.1" id="Selected_Items" xmlns="http://www.w3.org/2000/svg" xmlns:xlink="http://www.w3.org/1999/xlink" x="0px"
	 y="0px" width="1024px" height="680px" viewBox="0 0 1024 680" enable-background="new 0 0 1024 680" xml:space="preserve">
<path fill-rule="evenodd" clip-rule="evenodd" d="M611.25,478.5l6.5,5.75L616,495.5l-7.25,12l-3.75,8.75l-5.75,4.75l-6-3l-2.5-7.5
	l-2.5-5.75L602.5,483L611.25,478.5z M658.45,135.35l25.75,12.7l1.55,11.95l-4.6,18.85l-14.65,0.75l-18.05,28.1l1.149,16.55
	l-8.85,0.75l-1.15,12.3l4.2,10.4l-6.149,4.25L630,254.6l2.3,14.65l-5.399,2.7l-1.15,9.6l9.6,7.3l2.7,11.9l-1.149,15l-3.851,6.95
	l-4.1,0.525l-4.5,1.275l-16,9.5l-0.5-6l2.5-10.5l6.5-4l-5-7l-7.65,4.5l-3.6,9.2l-10,9.5l-8.5,4.5l2.5,7l10.5,5l9.5-6l11.5,4l8.5,2
	v9.5l-8,1.5l-8.5,3.5l0.5,6.5l-10.5,3.5l-6,6.5l6,3l3.5,11l7.5,10.5l11,10.5l2.625,8.3L612,427.25l11.25-0.75l-1.75,12.75
	L616.75,451l-4,8.5l-7,5.75L602,472l-9.5,14.25l-6,6.5l-5,3.75l-10,5.7l-11.75,9.25l-11,1.75l-12,0.5l-9,5.75l-10.5,3.75l-20.5-0.75
	l-1,6.25l4.5,2l2.75,8l-8,5.5l-6.75,7.25l-8.75-0.25l-10.25-5l-0.5-7.25l5.25-4.75l11.75-4.25l-0.5-4l-1.75-5.25l-10.25-3
	L463,519.45l-5,1.3l-13.75,12.2l2.75,8.25l2.5,10l4.75,5.75l-10.5-2.75l-7.5-12l0.25-11.45l1.65-8.45l0.3-6.149l-5.4-8.45
	l-13.85,0.35l-7.3-11.5l20,2.65l11.55-5.351l-6.55-3.1l-0.4-10l6.55-17.3l0.8-11.9l-25-6.95l2.65-24.6l1.55-8.45l10-0.399l8.1-9.2
	l8.05-11.601l8.5,2.7l6.5-6.149l-3.85-11.15l18.5-31.15l-5-13.1L470,297.3l13.45-11.15l34.6-3.1l11.55-5.4l23.851-3.85l11.899-23.85
	l-4.6-29.2l7.3-18.45l2.7-11.95l4.6-13.85l-9.199-8.8l6.899-10.8l-7.7-24.2l25.4-2.7L658.45,135.35z"/>
<path fill-rule="evenodd" clip-rule="evenodd" fill="none" stroke="#00FFFF" stroke-width="5" stroke-linecap="round" stroke-linejoin="round" stroke-miterlimit="3" d="
	M658.45,135.35l-67.7-5.35l-25.4,2.7l7.7,24.2l-6.899,10.8l9.199,8.8l-4.6,13.85l-2.7,11.95l-7.3,18.45l4.6,29.2L553.45,273.8
	l-23.851,3.85l-11.55,5.4l-34.6,3.1L470,297.3l3.85,34.2l5,13.1l-18.5,31.15l3.85,11.15l-6.5,6.149l-8.5-2.7l-8.05,11.601l-8.1,9.2
	l-10,0.399L421.5,420l-2.65,24.6l25,6.95l-0.8,11.9l-6.55,17.3l0.4,10l6.55,3.1L431.9,499.2l-20-2.65l7.3,11.5l13.85-0.35l5.4,8.45
	l-0.3,6.149l-1.65,8.45l-0.25,11.45l7.5,12l10.5,2.75l-4.75-5.75l-2.5-10l-2.75-8.25l13.75-12.2l5-1.3l10.25-1.75l10.25,3l1.75,5.25
	l0.5,4L474,534.2l-5.25,4.75l0.5,7.25l10.25,5l8.75,0.25l6.75-7.25l8-5.5l-2.75-8l-4.5-2l1-6.25l20.5,0.75l10.5-3.75l9-5.75l12-0.5
	l11-1.75l11.75-9.25l10-5.7l5-3.75l6-6.5L602,472l3.75-6.75l7-5.75l4-8.5l4.75-11.75l1.75-12.75L612,427.25l10.825-6.75l-2.625-8.3
	l-11-10.5l-7.5-10.5l-3.5-11l-6-3l6-6.5l10.5-3.5l-0.5-6.5l8.5-3.5l8-1.5v-9.5l-8.5-2l-11.5-4l-9.5,6l-10.5-5l-2.5-7l8.5-4.5l10-9.5
	l3.6-9.2l7.65-4.5l5,7l-6.5,4l-2.5,10.5l0.5,6l16-9.5l4.5-1.275l4.1-0.525l3.851-6.95l1.149-15l-2.7-11.9l-9.6-7.3l1.15-9.6
	l5.399-2.7L630,254.6l7.65-2.65l6.149-4.25l-4.2-10.4l1.15-12.3l8.85-0.75l-1.149-16.55l18.05-28.1l14.65-0.75l4.6-18.85
	l-1.55-11.95L658.45,135.35z M611.25,478.5l-8.75,4.5l-14.25,21.75l2.5,5.75l2.5,7.5l6,3l5.75-4.75l3.75-8.75l7.25-12l1.75-11.25
	L611.25,478.5z"/>
</svg>
