<?xml version="1.0" encoding="utf-8"?>
<!-- Generator: Adobe Illustrator 16.0.0, SVG Export Plug-In . SVG Version: 6.00 Build 0)  -->
<!DOCTYPE svg PUBLIC "-//W3C//DTD SVG 1.1//EN" "http://www.w3.org/Graphics/SVG/1.1/DTD/svg11.dtd">
<svg version="1.1" id="Selected_Items" xmlns="http://www.w3.org/2000/svg" xmlns:xlink="http://www.w3.org/1999/xlink" x="0px"
	 y="0px" width="1024px" height="680px" viewBox="0 0 1024 680" enable-background="new 0 0 1024 680" xml:space="preserve">
<polygon fill-rule="evenodd" clip-rule="evenodd" points="462,338.5 467.5,333 480.45,330 486.45,321.5 491.95,324.5 498.95,326 
	506.95,329.5 512,340 522.95,343 531.45,335.5 540.45,328.5 548.95,327.5 556.95,318.5 562.45,307.5 568.95,301 578.95,301.5 
	588.95,298.5 596.45,295 600.95,300.5 605.45,309 600.95,320.5 590.95,330 582.45,334.5 584.95,341.5 595.45,346.5 604.95,340.5 
	616.45,344.5 624.95,346.5 624.95,356 616.95,357.5 608.45,361 608.95,367.5 598.45,371 592.45,377.5 598.45,380.5 601.95,391.5 
	609.45,402 620.45,412.5 623.45,422 617.45,425.5 598.45,416.5 586.95,421 574.45,441 540.45,469.5 532.95,466 525.95,468.5 
	521.95,473.5 509.45,470 491.45,452 484.95,432 480.45,427 463.5,433 453,444.5 435.5,448.5 413,445.5 400.5,429.5 400.5,416.5 
	403,402.5 404.5,387 414.5,382 420.5,375 425.5,368 424.5,356.5 434,359 445.5,363.5 455.5,361 461.5,355.5 456.5,345.5 "/>
</svg>
