<?xml version="1.0" encoding="utf-8"?>
<!-- Generator: Adobe Illustrator 15.1.0, SVG Export Plug-In . SVG Version: 6.00 Build 0)  -->
<!DOCTYPE svg PUBLIC "-//W3C//DTD SVG 1.1//EN" "http://www.w3.org/Graphics/SVG/1.1/DTD/svg11.dtd">
<svg version="1.1" id="layer_2" xmlns="http://www.w3.org/2000/svg" xmlns:xlink="http://www.w3.org/1999/xlink" x="0px" y="0px"
	 width="1000px" height="590px" viewBox="0 0 1000 590" enable-background="new 0 0 1000 590" xml:space="preserve">
<symbol  id="element_6" viewBox="0 -82.3 978.25 82.3">
	<g id="layer_1_1_">
		<path fill-rule="evenodd" clip-rule="evenodd" fill-opacity="1" d="M978.25-44.85h-393.4V0h393.4V-44.85z M810.7-82.3h-63.45
			l20.1,35H837v-17.5L810.7-82.3z M756.75-47.3l-20.1-35H733l20.1,35H756.75z M764-47.3l-20.1-35H740l20.1,35H764z M579.35-47.3v-35
			h-384.4v46.4l97.15-0.3L305-47.3H579.35z M579.35,0v-44.5H307.3L294-33.25h-27.5L252.95-18.1L236.75,0H579.35z M749.75-47.3
			l-20.1-35h-144.8v35H749.75z M245.2-18.1L229,0h4.4l17.15-19.15l12.65-14.1h-4.45L245.2-18.1z M242.8-19.15l12.65-14.1h-60.5V0
			h30.7L242.8-19.15z M190.7-16.75h-63V0h63V-16.75z M190.7-49.25h-63v29h63V-49.25z M190.7-78.2l-35.1-0.05l-27.9,12.8V-53h63
			V-78.2z"/>
		<polygon fill-rule="evenodd" clip-rule="evenodd" fill-opacity="1" points="124.7,-0.65 124.7,-77.05 123.8,-77.95
			70.5,-77.95 69,-77.95 52.8,-77.95 27.95,-77.95 0,-64.4 0,-0.45 52.8,-0.45 69,-0.45 70.5,-0.45 124.5,-0.45 		"/>
	</g>
	<g id="timeline_1_">
	</g>
</symbol>
<use xlink:href="#element_6"  width="978.25" height="82.3" y="-82.3" transform="matrix(1 0 0 -1 0 0.4502)" overflow="visible"/>
</svg>
