<?xml version="1.0" encoding="utf-8"?>
<!-- Generator: Adobe Illustrator 15.1.0, SVG Export Plug-In . SVG Version: 6.00 Build 0)  -->
<!DOCTYPE svg PUBLIC "-//W3C//DTD SVG 1.1//EN" "http://www.w3.org/Graphics/SVG/1.1/DTD/svg11.dtd">
<svg version="1.1" id="layer_1" xmlns="http://www.w3.org/2000/svg" xmlns:xlink="http://www.w3.org/1999/xlink" x="0px" y="0px"
	 width="1000px" height="590px" viewBox="0 0 1000 590" enable-background="new 0 0 1000 590" xml:space="preserve">
<symbol  id="spaceship" viewBox="-28.75 -285.76 597.8 353.671">
	<g id="layer_3_1_">
		
			<path fill-rule="evenodd" clip-rule="evenodd" fill="none" stroke="#FFFFFF" stroke-width="2" stroke-linecap="square" stroke-miterlimit="3" d="
			M38.25-19.15l-4.3,4.05l1.6,1.65l-2.8,2.8c0.245,0.578,0.478,1.153,0.7,1.725l-8.7,2.475C22.437-1.312,21.587,4.071,22.2,9.7
			l-3.8,0.95c-3.631,9.221-3.481,18.638,0.45,28.25l2.45,0.75c-1.429,6.519-0.546,13.669,2.65,21.45l10.25,2.2
			c-0.178,0.43-0.362,0.863-0.55,1.3l2.65,1l-0.6,0.7l17.8,0.6l7.4-5h102.15l44.05-0.6l6.4-4.85l6-15.2L220.7,22h16.9l1.25-2.6h14.4
			l1.8,3.4h21.85l8.675-8.125L297.45,12.6l0.4-2.15L397.8,9.6V4.4l-98.75-0.6l-4.2-6.95l25.2-13.2l11.85,0.1l3.6-4h40.05 M34.2,63.3
			c4.363-10.928,4.572-22.178,0.625-33.75c-0.23-0.668-0.472-1.334-0.725-2l12.4-1.5l-0.2,7.6l-2,12.85l-3.2,13.4l-4.8,5.7
			 M23.8,32.7l11.025-3.15 M52,9.575L48.3,9.6l-0.05,14.05l-14.15-0.9c0.177-0.459,0.344-0.917,0.5-1.375
			c3.335-9.616,2.952-19.715-1.15-30.3 M24.6,19.4l10,1.975 M18.85,38.9c2.968-8.052,2.818-17.469-0.45-28.25 M60.9,61.9l6.65-21.6
			l0.6-14.25l-0.6-4.8l5.2-10.8l0.075-0.95l0.325-3.65 M46.5,26.05h1.75h19.9 M35.55-13.45l7,7.3l6.45,11l3,0.025L81.55,5l4-9
			 M52,9.575L72.825,9.5 M48.25,26.05v-2.4 M-21.6-107.95v5l3,0.6l0.05,3.8l-9.2,9.6v21.2L1.1-38.1l110.55,24.05l10.4,0.8l4.4,3.6
			V7.6l-3.2,3.2l-0.2,3l4.8,3h51.3l3.8-2.4v-4.2l-3-2.4l0.2-18.25l3.2-3.2l4.6-0.2l9.8,10.4V8l15.45,14h7.5 M297.85,10.45l1.2-6.65
			 M285.575,14.675L289.7,10.8V-0.45l5.15-2.7 M383.35-30.05L346-30.2l25.35-13.85l90-9.15l-4.65,4.7v4.65l8.2,2.4l23.85,0.2
			l2.4-2.8l5.8-0.6l1.4-3.05l55.7-1.2v-3l-55.9-0.6l-4.7-3.975l35.7-3.625l35.25-22l3.65-6.05v-19.6 M493.45-161.35l-32.1-3.3
			l-4.65-4.7V-174l8.2-2.4l23.85-0.2l2.4,2.8l5.8,0.6l1.4,3.05l55.7,1.2v3l-55.9,0.6L493.45-161.35l35.7,3.6l35.25,22l3.65,6.05
			v19.6 M335.5-20.25l-1.8-3.25l12.3-6.7 M333.7-194.35l-13.65-7.15l11.85-0.1l3.6,4L333.7-194.35l12.3,6.7l25.35,13.85l90,9.15
			 M335.5-197.6h40.05 M383.35-187.8L346-187.65 M397.8-222.25l-98.75,0.6l-1.2-6.65l99.95,0.85V-222.25z M461.35-53.2l32.1-3.275
			 M85.7-5.55l-0.3-9.85l-2.05-2.8l-43.9-0.45 M-21.6-109.9v-5l3-0.6l0.05-3.8l-9.2-9.6v-21.2L1.1-179.75l110.55-24.05l10.4-0.8
			l4.4-3.6v-17.25l-3.2-3.2l-0.2-3l4.8-3h51.3l3.8,2.4v4.2l-3,2.4l0.2,18.25l3.2,3.2l4.6,0.2l9.8-10.4v-11.45l15.45-14h7.5h16.9
			l1.25,2.6h14.4l1.8-3.4h21.85l8.7,8.15l4.1,3.85v11.25l5.15,2.7l25.2,13.2 M38.25-198.7l-4.3-4.05l1.6-1.65l7-7.3l6.45-11h3
			l29.55-0.15l4,9 M85.7-212.3l-0.3,9.85l-2.05,2.8l-43.9,0.45 M23.8-250.55l11.05,3.15c-0.233,0.667-0.483,1.333-0.75,2l12.4,1.5
			h1.75v2.4l-14.15,0.9c0.167,0.467,0.333,0.934,0.5,1.4l-10,1.95 M22.2-227.55l-3.8-0.95c3.267-10.767,3.417-20.183,0.45-28.25
			l2.45-0.75c-1.433-6.533-0.55-13.683,2.65-21.45l10.25-2.2c4.367,10.933,4.583,22.183,0.65,33.75 M48.25-243.9h19.9l-0.6,4.8
			l5.2,10.8l0.1,0.95L52-227.4l-3.7-0.05l-0.05-14.05 M72.85-227.35l0.3,3.65 M34.6-239.2c3.333,9.6,2.95,19.7-1.15,30.3l-8.7-2.5
			c4.867-7.633,4.817-16.25-0.15-25.85 M35.55-204.4l-2.8-2.8c0.233-0.566,0.467-1.133,0.7-1.7 M24.75-211.4
			c-2.3-5.133-3.15-10.517-2.55-16.15 M34.2-281.15c-0.167-0.434-0.35-0.867-0.55-1.3l2.65-1l4.8,5.7l3.2,13.4l2,12.85l0.2,7.6
			 M36.3-283.45l-0.6-0.7l17.8-0.6l7.4,5l6.65,21.6l0.6,14.25 M18.4-228.5c-3.633-9.233-3.483-18.65,0.45-28.25 M299.05-221.65
			l-4.2,6.95 M285.6-232.5l11.85,2.05l0.4,2.15 M60.9-279.75h102.15l44.05,0.6l6.4,4.85l6,15.2l1.2,19.25 M320.05-16.35l13.65-7.15
			 M24.6,19.4c4.971-9.606,5.021-18.223,0.15-25.85"/>
		<path fill-rule="evenodd" clip-rule="evenodd" fill="none" stroke="#FFFFFF" stroke-width="2" stroke-miterlimit="3" d="
			M23.8,32.7c5.077,10.046,5.127,19.513,0.15,28.4 M24.6,19.4c-1.263-3.312-2.063-6.545-2.4-9.7 M24.6-237.25
			c-1.267,3.3-2.067,6.533-2.4,9.7 M23.95-278.95c4.966,8.9,4.917,18.367-0.15,28.4"/>
		
			<path fill-rule="evenodd" clip-rule="evenodd" fill="none" stroke="#FFFFFF" stroke-width="2" stroke-linecap="round" stroke-miterlimit="3" d="
			M21.3,39.65c0.517-2.403,1.351-4.72,2.5-6.95 M52,4.875v4.7 M21.3-257.5c0.534,2.4,1.367,4.717,2.5,6.95 M52-227.4v4.7"/>
	</g>
	<g id="layer_2_1_">
		<path fill-rule="evenodd" clip-rule="evenodd" fill-opacity="1" d="M492.75-145.8h-68.9H354.9v-34.05h-70.5h-70.45v71.5v69.9
			h70.45h70.5V-69.3h68.95h68.9V-145.8z M354.9-145.8v37.45h-70.5v-71.5v71.5h70.5V-145.8z M423.85-69.3v-39.05v-37.45v37.45V-69.3z
			 M354.9-69.3v-39.05h68.95H354.9V-69.3z M106.2-70.9h45.6h24.85h36.9v-73.3h-36.5H152h-45.8v0.4H36.85v72.9H106.2v-72.9V-70.9z
			 M213.95-108.35h70.45v69.9v-69.9H213.95z M151.8-70.9l0.2-73.3L151.8-70.9z"/>
		<polygon fill-rule="evenodd" clip-rule="evenodd" fill-opacity="1" points="530.4,-69.3 530.4,-145.8 493.75,-145.8
			493.75,-69.3 		"/>
		
			<path fill-rule="evenodd" clip-rule="evenodd" fill="none" stroke="#FFFFFF" stroke-width="2" stroke-linecap="square" stroke-miterlimit="3" d="
			M492.75-145.8h-68.9H354.9v-34.05h-70.5h-70.45v71.5v69.9h70.45h70.5V-69.3h68.95h68.9V-145.8z M354.9-145.8v37.45h-70.5v-71.5
			 M423.85-69.3v-39.05v-37.45 M354.9-69.3v-39.05h68.95 M176.65-70.9h36.9v-73.3h-36.5v-35.65 M176.65-34.85V-70.9 M213.95-108.35
			h70.45v69.9 M106.2-70.9h45.6h24.85 M106.15-34.85l0.05-36.05v-72.9 M106.2-144.2v0.4H36.85v72.9h69.35 M177.05-144.2H152h-45.8
			l-0.05-35.65 M151.8-70.9l0.2-73.3"/>
	</g>
	<g id="text_1_">
		<path fill-rule="evenodd" clip-rule="evenodd" fill="#FFFFFF" d="M507.15-116.05v5h-5v-5h-5v15h15v-15H507.15z M507.15-108.55v5
			h-5v-5H507.15z"/>
		<polygon fill-rule="evenodd" clip-rule="evenodd" fill="#FFFFFF" points="515.15,-103.55 515.15,-101.05 522.65,-101.05 
			522.65,-116.05 517.65,-116.05 517.65,-103.55 		"/>
		<path fill-rule="evenodd" clip-rule="evenodd" fill="#FFFFFF" d="M454.15-100.95v-15h-5v5h-5v-5h-5v15H454.15z M449.15-108.45v5
			h-5v-5H449.15z"/>
		<polygon fill-rule="evenodd" clip-rule="evenodd" fill="#FFFFFF" points="467.15,-105.95 467.15,-103.45 457.15,-103.45 
			457.15,-100.95 472.15,-100.95 472.15,-108.45 462.15,-108.45 462.15,-113.45 472.15,-113.45 472.15,-115.95 457.15,-115.95 
			457.15,-105.95 		"/>
		<path fill-rule="evenodd" clip-rule="evenodd" fill="#FFFFFF" d="M382.7-96.85v5h-5v-5h-5v15h15v-15H382.7z M382.7-84.35h-5v-5h5
			V-84.35z"/>
		<polygon fill-rule="evenodd" clip-rule="evenodd" fill="#FFFFFF" points="405.7,-81.85 405.7,-96.85 390.7,-96.85 390.7,-94.35 
			400.7,-94.35 400.7,-89.35 393.2,-89.35 393.2,-86.85 400.7,-86.85 400.7,-84.35 390.7,-84.35 390.7,-81.85 		"/>
		<path fill-rule="evenodd" clip-rule="evenodd" fill="#FFFFFF" d="M377.7-134.2h-5v15h15v-15h-5v5h-5V-134.2z M382.7-121.7h-5v-5h5
			V-121.7z"/>
		<polygon fill-rule="evenodd" clip-rule="evenodd" fill="#FFFFFF" points="400.7,-126.7 400.7,-119.2 405.7,-119.2 405.7,-134.2 
			400.7,-134.2 400.7,-129.2 390.7,-129.2 390.7,-119.2 395.7,-119.2 395.7,-126.7 		"/>
		<path fill-rule="evenodd" clip-rule="evenodd" fill="#FFFFFF" d="M301.75-77.6h5v5h-5V-77.6z M309.25-72.6h2.5v-7.5h-15v15h15v-5
			h-2.5V-72.6z M306.75-70.1v2.5h-5v-2.5H306.75z"/>
		<polygon fill-rule="evenodd" clip-rule="evenodd" fill="#FFFFFF" points="327.25,-77.6 327.25,-80.1 314.75,-80.1 314.75,-65.1 
			319.75,-65.1 319.75,-77.6 		"/>
		<polygon fill-rule="evenodd" clip-rule="evenodd" fill="#FFFFFF" points="329.75,-67.6 329.75,-65.1 337.25,-65.1 337.25,-80.1 
			332.25,-80.1 332.25,-67.6 		"/>
		<path fill-rule="evenodd" clip-rule="evenodd" fill="#FFFFFF" d="M306.75-143.75h-5v-5h5V-143.75z M309.25-143.75h2.5v-7.5h-15v15
			h15v-5h-2.5V-143.75z M301.75-138.75v-2.5h5v2.5H301.75z"/>
		<path fill-rule="evenodd" clip-rule="evenodd" fill="#FFFFFF" d="M324.75-143.75v5h-5v-5H324.75z M327.25-143.75v-2.5h2.5v-5h-5v5
			h-5v-5h-5v15h15v-7.5H327.25z"/>
		<polygon fill-rule="evenodd" clip-rule="evenodd" fill="#FFFFFF" points="332.75,-138.75 332.75,-136.25 340.25,-136.25 
			340.25,-151.25 335.25,-151.25 335.25,-138.75 		"/>
		<path fill-rule="evenodd" clip-rule="evenodd" fill="#FFFFFF" d="M235.2-72.55h-5v-5h5V-72.55z M240.2-65.05v-5h-2.5v-2.5h2.5
			v-7.5h-15v15H240.2z M230.2-67.55v-2.5h5v2.5H230.2z"/>
		<polygon fill-rule="evenodd" clip-rule="evenodd" fill="#FFFFFF" points="248.2,-65.05 248.2,-77.55 255.7,-77.55 255.7,-80.05 
			243.2,-80.05 243.2,-65.05 		"/>
		<polygon fill-rule="evenodd" clip-rule="evenodd" fill="#FFFFFF" points="268.2,-70.05 268.2,-67.55 258.2,-67.55 258.2,-65.05 
			273.2,-65.05 273.2,-72.55 263.2,-72.55 263.2,-77.55 273.2,-77.55 273.2,-80.05 258.2,-80.05 258.2,-70.05 		"/>
		<path fill-rule="evenodd" clip-rule="evenodd" fill="#FFFFFF" d="M240.35-140.55h-2.5v-2.5h2.5v-7.5h-15v15h15V-140.55z
			 M230.35-143.05v-5h5v5H230.35z M230.35-138.05v-2.5h5v2.5H230.35z"/>
		<path fill-rule="evenodd" clip-rule="evenodd" fill="#FFFFFF" d="M255.85-143.05v-2.5h2.5v-5h-5v5h-5v-5h-5v15h15v-7.5H255.85z
			 M248.35-138.05v-5h5v5H248.35z"/>
		<polygon fill-rule="evenodd" clip-rule="evenodd" fill="#FFFFFF" points="261.35,-138.05 261.35,-135.55 276.35,-135.55 
			276.35,-143.05 266.35,-143.05 266.35,-148.05 276.35,-148.05 276.35,-150.55 261.35,-150.55 261.35,-140.55 271.35,-140.55 
			271.35,-138.05 		"/>
		<polygon fill-rule="evenodd" clip-rule="evenodd" fill="#FFFFFF" points="166.85,-98.4 181.85,-98.4 181.85,-100.9 171.85,-100.9 
			171.85,-110.9 181.85,-110.9 181.85,-113.4 166.85,-113.4 		"/>
		<polygon fill-rule="evenodd" clip-rule="evenodd" fill="#FFFFFF" points="184.85,-98.4 192.35,-98.4 192.35,-113.4 187.35,-113.4 
			187.35,-100.9 184.85,-100.9 		"/>
		<polygon fill-rule="evenodd" clip-rule="evenodd" fill="#FFFFFF" points="126.45,-111.55 126.45,-114.05 111.45,-114.05 
			111.45,-99.05 126.45,-99.05 126.45,-101.55 116.45,-101.55 116.45,-111.55 		"/>
		<polygon fill-rule="evenodd" clip-rule="evenodd" fill="#FFFFFF" points="144.45,-111.55 144.45,-114.05 129.45,-114.05 
			129.45,-104.05 139.45,-104.05 139.45,-101.55 129.45,-101.55 129.45,-99.05 144.45,-99.05 144.45,-106.55 134.45,-106.55 
			134.45,-111.55 		"/>
		<polygon fill-rule="evenodd" clip-rule="evenodd" fill="#FFFFFF" points="59.05,-111.6 69.05,-111.6 69.05,-114.1 54.05,-114.1 
			54.05,-99.1 69.05,-99.1 69.05,-101.6 59.05,-101.6 		"/>
		<polygon fill-rule="evenodd" clip-rule="evenodd" fill="#FFFFFF" points="72.05,-114.1 72.05,-111.6 82.05,-111.6 82.05,-106.6 
			74.55,-106.6 74.55,-104.1 82.05,-104.1 82.05,-101.6 72.05,-101.6 72.05,-99.1 87.05,-99.1 87.05,-114.1 		"/>
	</g>
	<g id="edge_1_">
		
			<polygon fill-rule="evenodd" clip-rule="evenodd" fill="none" stroke="#01FFFF" stroke-width="4" stroke-linecap="square" stroke-linejoin="bevel" stroke-miterlimit="3" points="
			530.4,-145.8 354.9,-145.8 354.9,-179.85 284.4,-179.85 284.4,-216.7 209.9,-216.7 209.9,-179.85 36.85,-179.85 36.85,-143.8 
			0,-143.8 0,-70.9 36.85,-70.9 36.85,-34.85 210.7,-34.85 210.7,0 284.4,0 284.4,-34.85 354.9,-34.85 354.9,-69.3 530.4,-69.3 		
			"/>
	</g>
</symbol>
<symbol  id="spaceshipIcon" viewBox="-0.204 -67.3 109.241 67.46">
	<g id="layer_1_1_">
		
			<use xlink:href="#spaceship"  width="597.8" height="353.671" x="-28.75" y="-285.76" transform="matrix(0.1827 0 0 0.1827 5.0498 -12.25)" overflow="visible"/>
		<polygon fill-rule="evenodd" clip-rule="evenodd" fill="#FFFFFF" fill-opacity="1" points="82.35,-61.3 82.35,-67.3
			77.35,-67.3 77.35,-66.3 80.35,-66.3 80.35,-61.3 		"/>
		<polygon fill-rule="evenodd" clip-rule="evenodd" fill="#FFFFFF" fill-opacity="1" points="83.35,-61.3 89.35,-61.3
			89.35,-62.3 85.35,-62.3 85.35,-63.3 89.35,-63.3 89.35,-67.3 83.35,-67.3 83.35,-66.3 87.35,-66.3 87.35,-65.3 83.35,-65.3 		"/>
		<polygon fill-rule="evenodd" clip-rule="evenodd" fill="#FFFFFF" fill-opacity="1" points="93.35,-65.3 90.35,-65.3
			90.35,-64.3 93.35,-64.3 		"/>
		<polygon fill-rule="evenodd" clip-rule="evenodd" fill="#FFFFFF" fill-opacity="1" points="94.35,-61.3 100.35,-61.3
			100.35,-67.3 94.35,-67.3 94.35,-66.3 98.35,-66.3 98.35,-64.3 95.35,-64.3 95.35,-63.3 98.35,-63.3 98.35,-62.3 94.35,-62.3 		
			"/>
		<path fill-rule="evenodd" clip-rule="evenodd" fill="#FFFFFF" fill-opacity="1" d="M105.35-66.3v2h-2v-2H105.35z
			 M101.35-61.3h6v-1h-4v-1h4v-4h-6V-61.3z"/>
	</g>
</symbol>
<use xlink:href="#spaceshipIcon"  width="109.241" height="67.46" x="-0.204" y="-67.3" transform="matrix(0.9978 0 0 -1.008 0.2041 0.1597)" overflow="visible"/>
</svg>
