<?xml version="1.0" encoding="utf-8"?>
<!-- Generator: Adobe Illustrator 16.0.0, SVG Export Plug-In . SVG Version: 6.00 Build 0)  -->
<!DOCTYPE svg PUBLIC "-//W3C//DTD SVG 1.1//EN" "http://www.w3.org/Graphics/SVG/1.1/DTD/svg11.dtd">
<svg version="1.1" id="layer_1" xmlns="http://www.w3.org/2000/svg" xmlns:xlink="http://www.w3.org/1999/xlink" x="0px" y="0px"
	 width="16px" height="22px" viewBox="0 0 16 22" enable-background="new 0 0 16 22" xml:space="preserve">
<path fill-rule="evenodd" clip-rule="evenodd" fill="#01FFFF" d="M8.099,3.91H8.052C7.069,3.942,6.228,4.308,5.529,5.007
	c-0.76,0.761-1.144,1.665-1.144,2.711c0,1.08,0.384,1.985,1.144,2.716c0.699,0.73,1.54,1.093,2.523,1.093h0.047
	c0.983,0,1.84-0.362,2.573-1.093c0.76-0.73,1.141-1.636,1.141-2.716c0-1.046-0.381-1.95-1.141-2.711
	C9.939,4.308,9.082,3.942,8.099,3.91z M0.293,8.005c0-2.126,0.746-3.937,2.237-5.426c1.492-1.492,3.316-2.238,5.473-2.238h0.096
	c0.032,0,0.064,0,0.096,0c2.127,0,3.938,0.746,5.428,2.238c1.521,1.489,2.285,3.3,2.285,5.426c0,0.952-0.223,1.888-0.67,2.807
	c-0.219,0.478-0.76,1.351-1.615,2.621c-2.764,4.251-4.572,7.044-5.428,8.378L8.099,22H8.052l-0.049-0.189
	c-0.854-1.334-2.68-4.127-5.473-8.378c-0.825-1.271-1.349-2.144-1.571-2.621C0.515,9.893,0.293,8.957,0.293,8.005z"/>
</svg>
