<?xml version="1.0" encoding="utf-8"?>
<!-- Generator: Adobe Illustrator 16.0.0, SVG Export Plug-In . SVG Version: 6.00 Build 0)  -->
<!DOCTYPE svg PUBLIC "-//W3C//DTD SVG 1.1//EN" "http://www.w3.org/Graphics/SVG/1.1/DTD/svg11.dtd">
<svg version="1.1" id="Selected_Items" xmlns="http://www.w3.org/2000/svg" xmlns:xlink="http://www.w3.org/1999/xlink" x="0px"
	 y="0px" width="1024px" height="680px" viewBox="0 0 1024 680" enable-background="new 0 0 1024 680" xml:space="preserve">
<path fill-rule="evenodd" clip-rule="evenodd" d="M436.5,272.75l18.25,5l19.5,4.75l15.25,10l15.5,3l10.75,14.5l4,7.75l-0.25,5.75
	l-6,6l1.5,9l-3.75,9.75l-0.5,9.25l7,6.25l9.5,0.75l-3.25,8.25l-7,6.75l0.5,4.5l8,4.75l6.75-3L534.5,396l4.25,9.25v10L536,423
	l-6,1.75l-4.75-5.25l-2.25-8l-10.25-1.75l-3.25,6.5l-4.5,4l-9,0.75l-4.75,6.75L489.5,434l-5.5-1l-12,11.75l0.25,13.5l1.25,10.5l-7,2
	l-2.75,2.25l-7,4.75l-3,8.5l2,5l-7-3.75l-9.25,1l-7.25,3.5l-5.25,0.25l-6-5.25l-4-2.25L414.75,473l-6.5-6l-6.75,2.75
	c-2-4.333-3-6.917-3-7.75c0-0.533-0.617-2.434-1.85-5.7l-1.9-4.8l-6-1.5l4.75-5.75l1-11l-4.75-7.5l2-3.75l8,7.75l2.75,9l3,3.75
	l3.25-9l1.25-6.75l6.25-0.5L421,431l12-22.5l7.75-7.25L440,394l-2-9.5l7.25-0.75l1.5-10.25l-5-6.75l-4.5-0.25l-4.25-3v-9.75
	l-3.5-3.5l-3-7.75l3.25-7l0.875-6l-2.125-11l-6-4.5l-9.5-11l-16-3.5l-13-4.5l-6.25,1.5l-3-5.5l-0.5-9.5l6-5.5l12.25-2.5l27.25-1.5
	L436.5,272.75z M512,296.75l9.75-0.75l22.5,0.5l22.25,1.75l9.5-1l6.475-3.75l3.976,6.5h11l6.5-7l14.5,4.5l0.5,7.5l-7.5,1.8
	l-7.15,4.2l-3.6,9.2l-10,9.5l-8.5,4.5l4.25,9.8l0.55,4.75l5.5,1.25l2.7-3.8l9.5-6l11.5,4l8.5,2v9.5l-8,1.5l-8.5,3.5l0.5,6.5
	l-10.5,3.5l-6,6.5l6,3l3.5,11l-19.45,15.3l-11,10.5l-9.5,7l-5.25,1l-6-8.75l-3.25,1.5L542,417c0.667-1.833,0.917-3.167,0.75-4
	c-0.1-0.533-0.217-2.4-0.35-5.6l-0.15-4.65c0.333-6,0.5-9.417,0.5-10.25s-1.583-4.417-4.75-10.75c-4.167,0.167-6.833,0.25-8,0.25
	c-0.733,0-2-0.167-3.8-0.5l-2.45-0.5l6.5-12.5l-2.25-9.75l-8.5-2c-0.5-1.533-0.983-3.134-1.45-4.8c-0.967-3.267-1.399-5.167-1.3-5.7
	s0.884-1.934,2.35-4.2c0.733-1.166,1.45-2.267,2.15-3.3L519,330.5c2.5-3.167,3.75-5.25,3.75-6.25c0-0.633,0.634-1.95,1.9-3.95
	c0.6-1,1.216-1.933,1.85-2.8l1.5-3.5l-2.5-6.25l-8.25-2.25L512,296.75z M620.2,412.2l2.625,8.3L612,427.25l11.25-0.75l-1.75,12.75
	L616.75,451l-4,8.5l-7,5.75L602,472l-9.5,14.25l-6,6.5l-5,3.75l-10,5.7l-11.75,9.25l-11,1.75l-12,0.5l-9,5.75l-10.5,3.75l-20.5-0.75
	l-1,6.25l4.5,2l2.75,8l-8,5.5l-6.75,7.25l-8.75-0.25l-10.25-5l-0.5-7.25l5.25-4.75l11.75-4.25l-0.5-4l-1.75-5.25l-10.25-3
	L463,519.45l-5,1.3l-13.75,12.2l2.75,8.25l2.5,10l4.75,5.75l-10.5-2.75l-7.5-12l0.25-11.45l1-11.75l-8.25-9.7l-0.75-9.55l1.75-4.5
	l4.75,1l4.75-0.25l5.5-6.25l5.25,5l8.75,3l4-3.5l-6.25-8l4.75-7l5.5,2l0.25-5l6.5,1.25l4.75-5.5l0.5-13L477,446l5.75-5.25l2-4
	l5.25,6l6-4.75l-3-7.25l8.5-7l6.5,2.5l5.5-7l1.75-4.5l5,2v6.5l5.75,5.5l8.5,0.25l7.25-6l7.25-2.5l4.75,9.5l3.2,0.9
	c2.233,0.533,3.666,0.649,4.3,0.35c1-0.5,4.25-2.5,9.75-6l6.25-9l11-8.25l6-3l6.5-5.75l2.8-5.45l5.65,7.9L620.2,412.2z
	 M611.25,478.5l6.5,5.75L616,495.5l-7.25,12l-3.75,8.75l-5.75,4.75l-6-3l-2.5-7.5l-2.5-5.75L602.5,483L611.25,478.5z"/>
</svg>
