<?xml version="1.0" encoding="utf-8"?>
<!-- Generator: Adobe Illustrator 16.0.0, SVG Export Plug-In . SVG Version: 6.00 Build 0)  -->
<!DOCTYPE svg PUBLIC "-//W3C//DTD SVG 1.1//EN" "http://www.w3.org/Graphics/SVG/1.1/DTD/svg11.dtd">
<svg version="1.1" id="Selected_Items" xmlns="http://www.w3.org/2000/svg" xmlns:xlink="http://www.w3.org/1999/xlink" x="0px"
	 y="0px" width="1024px" height="680px" viewBox="0 0 1024 680" enable-background="new 0 0 1024 680" xml:space="preserve">
<path fill-rule="evenodd" clip-rule="evenodd" d="M611.25,478.5l6.5,5.75L616,495.5l-7.25,12l-3.75,8.75l-5.75,4.75l-6-3l-2.5-7.5
	l-2.5-5.75L602.5,483L611.25,478.5z M472.5,313.5l0.5-12l7.45-7l14.5-5.5l17.5,4h12l10,4.5l1.5-10l26,1.5l21.5-2.5l15-7.375
	l22.5,5.875l12.5,14l1.5,22.5l-10.5,3l-16,9.5l-0.5-6l2.5-10.5l6.5-4l-5-7l-7.65,4.5l-3.6,9.2l-10,9.5l-8.5,4.5l2.5,7l10.5,5l9.5-6
	l11.5,4l8.5,2v9.5l-8,1.5l-8.5,3.5l0.5,6.5l-10.5,3.5l-6,6.5l6,3l3.5,11l7.5,10.5l11,10.5l2.625,8.3L612,427.25l11.25-0.75
	l-1.75,12.75L616.75,451l-4,8.5l-7,5.75L602,472l-9.5,14.25l-6,6.5l-5,3.75l-10,5.7l-11.75,9.25l-11,1.75l-12,0.5l-9,5.75
	l-10.5,3.75l-20.5-0.75l-1,6.25l4.5,2l2.75,8l-8,5.5l-6.75,7.25l-8.75-0.25l-10.25-5l-0.5-7.25l5.25-4.75l11.75-4.25l-0.5-4
	l-1.75-5.25l-10.25-3L463,519.45l-2-2.45l-11-4l-9.75-18.25l-15.5,7.25l-3.5-4.75l-7.5-7.75l-9-4.75l-3.25-9.25l-5.25-2.5
	l-13.5-1.75l-10.75-3l-1.25-7.5l3.75-7.75l6.75-5.75l15.5-2.5l10-6.75l8.75-8.75l8.5-20.75l4-16l6.5-8l14,0.5l-7.5-10.5l-3.5-11.5
	l1.5-12l7-3.5l7.5-0.5l-2-9l7-1l7.5-7.5L472.5,313.5z"/>
<path fill-rule="evenodd" clip-rule="evenodd" fill="none" stroke="#00FFFF" stroke-width="5" stroke-linecap="round" stroke-linejoin="round" stroke-miterlimit="3" d="
	M472.5,313.5l-6.5,16l-7.5,7.5l-7,1l2,9l-7.5,0.5l-7,3.5l-1.5,12l3.5,11.5l7.5,10.5l-14-0.5l-6.5,8l-4,16l-8.5,20.75l-8.75,8.75
	l-10,6.75l-15.5,2.5L374.5,453l-3.75,7.75l1.25,7.5l10.75,3l13.5,1.75l5.25,2.5l3.25,9.25l9,4.75l7.5,7.75l3.5,4.75l15.5-7.25
	L450,513l11,4l2,2.45l10.25-1.75l10.25,3l1.75,5.25l0.5,4L474,534.2l-5.25,4.75l0.5,7.25l10.25,5l8.75,0.25l6.75-7.25l8-5.5l-2.75-8
	l-4.5-2l1-6.25l20.5,0.75l10.5-3.75l9-5.75l12-0.5l11-1.75l11.75-9.25l10-5.7l5-3.75l6-6.5L602,472l3.75-6.75l7-5.75l4-8.5
	l4.75-11.75l1.75-12.75L612,427.25l10.825-6.75l-2.625-8.3l-11-10.5l-7.5-10.5l-3.5-11l-6-3l6-6.5l10.5-3.5l-0.5-6.5l8.5-3.5l8-1.5
	v-9.5l-8.5-2l-11.5-4l-9.5,6l-10.5-5l-2.5-7l8.5-4.5l10-9.5l3.6-9.2l7.65-4.5l5,7l-6.5,4l-2.5,10.5l0.5,6l16-9.5l10.5-3l-1.5-22.5
	l-12.5-14l-22.5-5.875l-15,7.375l-21.5,2.5l-26-1.5l-1.5,10l-10-4.5h-12l-17.5-4l-14.5,5.5l-7.45,7L472.5,313.5z M611.25,478.5
	l-8.75,4.5l-14.25,21.75l2.5,5.75l2.5,7.5l6,3l5.75-4.75l3.75-8.75l7.25-12l1.75-11.25L611.25,478.5z"/>
</svg>
