<?xml version="1.0" encoding="utf-8"?>
<!-- Generator: Adobe Illustrator 16.0.0, SVG Export Plug-In . SVG Version: 6.00 Build 0)  -->
<!DOCTYPE svg PUBLIC "-//W3C//DTD SVG 1.1//EN" "http://www.w3.org/Graphics/SVG/1.1/DTD/svg11.dtd">
<svg version="1.1" id="Selected_Items" xmlns="http://www.w3.org/2000/svg" xmlns:xlink="http://www.w3.org/1999/xlink" x="0px"
	 y="0px" width="1024px" height="680px" viewBox="0 0 1024 680" enable-background="new 0 0 1024 680" xml:space="preserve">
<path fill-rule="evenodd" clip-rule="evenodd" d="M611.25,478.5l6.5,5.75L616,495.5l-7.25,12l-3.75,8.75l-5.75,4.75l-6-3l-2.5-7.5
	l-2.5-5.75L602.5,483L611.25,478.5z M690.7,147l7.5,0.25l1.5,10.25l5.25-2.5l10.5,4.5l-0.25-9.75l8,2.5l8.25,9.5l22.25,36.5
	l-5.25,14.5l8.5,10l1,16.25l-15.5,4l-3.75-7.75l-6.25-3.5L729.2,246l-7.95,11l-4,12.5l-7,12L698,284.75l-7.5-3.5l-7,5.5l-6.625,7.1
	L666.9,306.9l-14.601-5.35l-5.399,11.5l-11.5,9.375l-6.45,0.8l-4.5,1.275l-16,9.5l-0.5-6l2.5-10.5l6.5-4l-5-7l-7.65,4.5l-3.6,9.2
	l-10,9.5l-8.5,4.5l2.5,7l10.5,5l9.5-6l11.5,4l8.5,2v9.5l-8,1.5l-8.5,3.5l0.5,6.5l-10.5,3.5l-6,6.5l6,3l3.5,11l7.5,10.5l11,10.5
	l2.625,8.3L612,427.25l11.25-0.75l-1.75,12.75L616.75,451l-4,8.5l-7,5.75L602,472l-9.5,14.25l-6,6.5l-5,3.75l-10,5.7l-11.75,9.25
	l-11,1.75l-12,0.5l-9,5.75l-10.5,3.75l-20.5-0.75l-1,6.25l4.5,2l2.75,8l-8,5.5l-6.75,7.25l-8.75-0.25l-10.25-5l-0.5-7.25l5.25-4.75
	l11.75-4.25l-0.5-4l-1.75-5.25l-10.25-3l-9.4,1.6l-4.6-6.25l-10.8-6.899l4.65-7.7l-9.25-6.95l-5.4,5.4l-8.45-0.75l-9.25,8.449
	l-12.3-3.85l-4.6,9.2l-6.15-6.15l-7.7,5.775l-3.1-8.025l-5.75-3.1l-0.8-8.05l-8.45,4.199l1.15-18.05l-8.45,0.351l-3.45-13.5
	l8.85-12.65l10.75-11.55l-7.7-5.4l-16.15-7.7l-15.35,9.65l-27.35-3.5l0.4-9.2l-2.7-8.45l-8.45-3.1l-5,5.4l-17.65-0.75l-1.55-14.65
	l-18.45-12.3l-12.35-20.75l-16.15-6.95l-13.05-1.5l-6.95-20.8l-16.9-10l5.4-10l-16.95-28.45l3.85-19.2l3.45-6.2l-5.75-6.9l-9.6,3.85
	l-14.65,4.6l6.95-10.75l8.45-6.95l0.4-5.4l8.05-7.3l11.55-4.2l-1.9-8.5l13.45-2.3l1.15-9.2l-9.25-1.15l-11.9-3.85v-14.25l12.3-3.05
	l21.9-8.85l25.8-6.55l40.4,6.55l5.35-7.7h20.8l13.05-10l3.45-6.55l41.55-9.6l16.95,5.75l5.7,3.45l9.65,3.1l8.85-6.15l14.6-1.15
	l15.4,1.9L455,160l-1.55,5.35l16.15,8.45l6.15,6.2l4.6,8.05l16.15-1.55l7.7,5.8l12.3,5l18.1,4.6l15.4-6.15l7.65-2.3l8.85,5
	l13.85,3.45l7.7-11.9l2.7-13.1l-8.45-6.9l-0.399-12.7l16.149-8.1l6.95-15.35l15.35-1.55l13.5-3.1l15.75,1.55l6.551,8.1l16.149-0.4
	l8.45,2.35l5.75,0.95L690.7,147z"/>
</svg>
