<?xml version="1.0" encoding="utf-8"?>
<!-- Generator: Adobe Illustrator 16.0.0, SVG Export Plug-In . SVG Version: 6.00 Build 0)  -->
<!DOCTYPE svg PUBLIC "-//W3C//DTD SVG 1.1//EN" "http://www.w3.org/Graphics/SVG/1.1/DTD/svg11.dtd">
<svg version="1.1" id="Selected_Items" xmlns="http://www.w3.org/2000/svg" xmlns:xlink="http://www.w3.org/1999/xlink" x="0px"
	 y="0px" width="1024px" height="680px" viewBox="0 0 1024 680" enable-background="new 0 0 1024 680" xml:space="preserve">
<path fill-rule="evenodd" clip-rule="evenodd" d="M611.25,478.5l6.5,5.75L616,495.5l-7.25,12l-3.75,8.75l-5.75,4.75l-6-3l-2.5-7.5
	l-2.5-5.75L602.5,483L611.25,478.5z M457.25,377.3h-4.2l-1.775-5.399l-4.375-5.4l9.6-2.7l10.4,6.55l10.75-0.399l18.45,16.95
	l11.55,0.35l10.75,4.65l1.949,8.85l17.301,1.9l20-0.4l10.75,1.2l6.949-7.7l10,0.35l13.4-14.199l2.95,9.3l7.5,10.5l11,10.5l2.625,8.3
	L612,427.25l11.25-0.75l-1.75,12.75L616.75,451l-4,8.5l-7,5.75L602,472l-9.5,14.25l-6,6.5l-5,3.75l-10,5.7l-11.75,9.25l-11,1.75
	l-12,0.5l-9,5.75l-10.5,3.75l-20.5-0.75l-1,6.25l4.5,2l2.75,8l-8,5.5l-6.75,7.25l-8.75-0.25l-10.25-5l-0.5-7.25l5.25-4.75
	l11.75-4.25l-0.5-4l-1.75-5.25l-10.25-3l-4.8,0.825l-1.95-8.176l-7.7-7.649l1.15-6.95l-9.6-0.4l-8.85-18.05l3.45-11.55l6.15-1.9
	l2.7-4.25l-6.55-1.149v-6.15l-6.5-0.399l-8.5,5l1.15-17.7l8.1-2.3l-2.3-10l-7.3,3.449l-6.15-6.55l4.2-3.85l-3.45-8.05l6.9-15
	l1.55,7.699l9.25-2.699l-4.25-4.65l1.95-4.2l10-1.55L457.25,377.3z"/>
</svg>
