<?xml version="1.0" encoding="utf-8"?>
<!-- Generator: Adobe Illustrator 16.0.0, SVG Export Plug-In . SVG Version: 6.00 Build 0)  -->
<!DOCTYPE svg PUBLIC "-//W3C//DTD SVG 1.1//EN" "http://www.w3.org/Graphics/SVG/1.1/DTD/svg11.dtd">
<svg version="1.1" id="Selected_Items" xmlns="http://www.w3.org/2000/svg" xmlns:xlink="http://www.w3.org/1999/xlink" x="0px"
	 y="0px" width="1024px" height="680px" viewBox="0 0 1024 680" enable-background="new 0 0 1024 680" xml:space="preserve">
<path fill-rule="evenodd" clip-rule="evenodd" d="M611.25,478.5l6.5,5.75L616,495.5l-7.25,12l-3.75,8.75l-5.75,4.75l-6-3l-2.5-7.5
	l-2.5-5.75L602.5,483L611.25,478.5z M425.75,268l13.25,3.5l8,3.75l1,10l-7.25,6l-2,6.5l0.75,6.75l5.75,4.25l7-1.75l5-4l5.25-1.5
	l5.5,1.25l2.25,6.5l5.5,3l6.75-15l1.5-6.75l5.75-4.75l5.75-2.25l8.25,0.5l13.25-0.25l11.75,0.75l20-0.25l11.25-2l8.5-2.25l-3,7.25
	l-4.25,12.5l5.75,9l8.5,4l11.25,1.5l-2-5.5l8-5.25l5-5.25l3.75-6.5l6.5,1.75l4.25,2.25l8.5,0.25l-1.5,6.25l-3,4.25l0.175,6.25
	l-4.475-6.25l-7.65,4.5l-3.6,9.2l-10,9.5l-8.5,4.5l2.5,7l10.5,5l9.5-6l11.5,4l8.5,2v9.5l-8,1.5l-8.5,3.5l0.5,6.5l-10.5,3.5l-6,6.5
	l6,3l3.5,11l7.5,10.5l11,10.5l2.625,8.3L612,427.25l11.25-0.75l-1.75,12.75L616.75,451l-4,8.5l-7,5.75L602,472l-9.5,14.25l-6,6.5
	l-5,3.75l-10,5.7l-11.75,9.25l-11,1.75l-12,0.5l-9,5.75l-10.5,3.75l-20.5-0.75l-1,6.25l4.5,2l2.75,8l-8,5.5l-6.75,7.25l-8.75-0.25
	l-10.25-5l-0.5-7.25l5.25-4.75l11.75-4.25l-0.5-4l-1.75-5.25l-10.25-3L463,519.45l-5,1.3l-13.75,12.2l2.75,8.25l2.5,10l4.75,5.75
	l-10.5-2.75l-7.5-12l0.25-11.45l1-11.75v-5.5l-7.75-11l2-6l4,4.25l2.75-5.5l3.5,2.5l2.5-2.75l2-3.75l10.5,7.5l4.75-1.75l-1.5-9.75
	l0.75-5.5l5.75,3.75l3-1.25l-1-4.75L464,475l-4.25,3.5l-2.25-5V462l2.25-4l5-4.25l-3-6.25l-6.5-4.75l-8-1l-4.75,8.75h-5.25l-2-7.25
	l-2.75,3.5l-0.5,10.5l-3.75-0.25l-5,2.25l-2-7.75l-1.75-4.75l-2.75-0.5l-1.5-10.25l5.75,3.25l1.75-2.25l1.25-4.75l1.75-3.5h7.75
	l0.5-14l3.5-2.25l3.5-1l2.5-8.5l-3-10l0.25-5.25l4.25,2.5l1.5-12.75L445,372l-3-2.25l-4.75,0.25l-1.75,7.75l-3.25-5l-8.5-5.25
	l-7.5-7l-4.5-5.75l-7.25,0.5l-6.25,2.75l-10.75-5.25l-6.5-9l-6.75-2l-6.5-5l-3-5l-9.5-2.75l-10.5-6.25l-6-2.5L330.5,321l-16.5-9
	l-4.5,1.75h-8.25l-5.75,2.75l-7.25,1.75L280,303.5l-0.25-19l5.75-8.5l11.5-5.5l6.75,2L321,271l4.25-4.75l5.75-4l7.25,4.5L348,269
	l3.75-4.25l-1.25-8.25l0.5-7.75l6-2.25l10.5,1.75l13.5,7.5l12,4.75l10,2.25l7.75,2.75L425.75,268z"/>
<path fill-rule="evenodd" clip-rule="evenodd" fill="none" stroke="#00FFFF" stroke-width="5" stroke-linecap="round" stroke-linejoin="round" stroke-miterlimit="3" d="
	M425.75,268l-15-2.5l-7.75-2.75l-10-2.25l-12-4.75l-13.5-7.5L357,246.5l-6,2.25l-0.5,7.75l1.25,8.25L348,269l-9.75-2.25l-7.25-4.5
	l-5.75,4L321,271l-17.25,1.5l-6.75-2l-11.5,5.5l-5.75,8.5l0.25,19l8.25,14.75l7.25-1.75l5.75-2.75h8.25L314,312l16.5,9l8.25-0.75
	l6,2.5l10.5,6.25l9.5,2.75l3,5l6.5,5l6.75,2l6.5,9l10.75,5.25l6.25-2.75l7.25-0.5l4.5,5.75l7.5,7l8.5,5.25l3.25,5l1.75-7.75
	l4.75-0.25l3,2.25l1.5,5.5l-1.5,12.75l-4.25-2.5L440.5,393l3,10l-2.5,8.5l-3.5,1l-3.5,2.25l-0.5,14h-7.75l-1.75,3.5l-1.25,4.75
	l-1.75,2.25l-5.75-3.25l1.5,10.25l2.75,0.5l1.75,4.75l2,7.75l5-2.25l3.75,0.25l0.5-10.5l2.75-3.5l2,7.25h5.25l4.75-8.75l8,1
	l6.5,4.75l3,6.25l-5,4.25l-2.25,4v11.5l2.25,5L464,475l4.75,4.5l1,4.75l-3,1.25l-5.75-3.75l-0.75,5.5l1.5,9.75l-4.75,1.75l-10.5-7.5
	l-2,3.75l-2.5,2.75l-3.5-2.5l-2.75,5.5l-4-4.25l-2,6l7.75,11v5.5l-1,11.75l-0.25,11.45l7.5,12l10.5,2.75l-4.75-5.75l-2.5-10
	l-2.75-8.25l13.75-12.2l5-1.3l10.25-1.75l10.25,3l1.75,5.25l0.5,4L474,534.2l-5.25,4.75l0.5,7.25l10.25,5l8.75,0.25l6.75-7.25l8-5.5
	l-2.75-8l-4.5-2l1-6.25l20.5,0.75l10.5-3.75l9-5.75l12-0.5l11-1.75l11.75-9.25l10-5.7l5-3.75l6-6.5L602,472l3.75-6.75l7-5.75l4-8.5
	l4.75-11.75l1.75-12.75L612,427.25l10.825-6.75l-2.625-8.3l-11-10.5l-7.5-10.5l-3.5-11l-6-3l6-6.5l10.5-3.5l-0.5-6.5l8.5-3.5l8-1.5
	v-9.5l-8.5-2l-11.5-4l-9.5,6l-10.5-5l-2.5-7l8.5-4.5l10-9.5l3.6-9.2l7.65-4.5l4.475,6.25l-0.175-6.25l3-4.25l1.5-6.25l-8.5-0.25
	L608,293.5l-6.5-1.75l-3.75,6.5l-5,5.25l-8,5.25l2,5.5l-11.25-1.5l-8.5-4l-5.75-9l4.25-12.5l3-7.25l-8.5,2.25l-11.25,2l-20,0.25
	L517,283.75L503.75,284l-8.25-0.5l-5.75,2.25L484,290.5l-1.5,6.75l-6.75,15l-5.5-3l-2.25-6.5l-5.5-1.25l-5.25,1.5l-5,4l-7,1.75
	l-5.75-4.25l-0.75-6.75l2-6.5l7.25-6l-1-10l-8-3.75L425.75,268z M611.25,478.5l-8.75,4.5l-14.25,21.75l2.5,5.75l2.5,7.5l6,3
	l5.75-4.75l3.75-8.75l7.25-12l1.75-11.25L611.25,478.5z"/>
</svg>
