<?xml version="1.0" encoding="utf-8"?>
<!-- Generator: Adobe Illustrator 16.0.0, SVG Export Plug-In . SVG Version: 6.00 Build 0)  -->
<!DOCTYPE svg PUBLIC "-//W3C//DTD SVG 1.1//EN" "http://www.w3.org/Graphics/SVG/1.1/DTD/svg11.dtd">
<svg version="1.1" id="Selected_Items" xmlns="http://www.w3.org/2000/svg" xmlns:xlink="http://www.w3.org/1999/xlink" x="0px"
	 y="0px" width="1024px" height="680px" viewBox="0 0 1024 680" enable-background="new 0 0 1024 680" xml:space="preserve">
<path fill-rule="evenodd" clip-rule="evenodd" d="M763.85,43.1l5.5,12.4c3.733,8.567,5.75,13.65,6.051,15.25
	c0.3,1.6-0.25,4.9-1.65,9.9c-0.7,2.533-1.434,4.883-2.2,7.05l20,30.75c6.667,25.1,10,39.2,10,42.3s0.25,11.567,0.75,25.4
	l-47.7-63.85L729.2,110.75c-2.934,1.167-6.017,2.483-9.25,3.95c-6.4,2.966-10.233,5.25-11.5,6.85c-1.267,1.6-4.467,4.767-9.601,9.5
	l-7.3,6.65l-3.1,16.55l7.7-7.075l3.55,10.325l5.25-2.5l10.5,4.5l-0.25-9.75l8,2.5l8.25,9.5l22.25,36.5l-5.25,14.5l8.5,10l1,16.25
	l-15.5,4l-3.75-7.75l-6.25-3.5L729.2,246l-7.95,11l-4,12.5l-7,12L698,284.75l-7.5-3.5l-7,5.5l-7,7.5l0.75,9.5l-7,8.5l-9.5,5.25
	l-3,10.75l-11.25,7.5l-9,2.25l5.75-9.75l-2.5-6.5l-11.8,1.475l-4.5,1.275l-16,9.5l-0.5-6l2.5-10.5l6.5-4l-5-7l-7.65,4.5l-3.6,9.2
	l-10,9.5l-8.5,4.5l2.5,7l10.5,5l9.5-6l11.5,4l8.5,2v9.5l-8,1.5l-8.5,3.5l0.5,6.5l-10.5,3.5l-6,6.5l6,3l3.5,11l7.5,10.5l11,10.5
	l2.625,8.3L612,427.25l11.25-0.75l-1.75,12.75L616.75,451l-4,8.5l-7,5.75L602,472l-9.5,14.25l-6,6.5l-5,3.75l-10,5.7l-11.75,9.25
	l-11,1.75l-12,0.5l-9,5.75l-10.5,3.75l-20.5-0.75l-1,6.25l4.5,2l2.75,8l-8,5.5l-6.75,7.25l-8.75-0.25l-10.25-5l-0.5-7.25l5.25-4.75
	l11.75-4.25l-0.5-4l-1.75-5.25l-10.25-3L463,519.45l-3,0.774l0.35-6.024l-6.55-7.3l3.85-5.75l-8.45-4.65l-6.15-6.55l-5.4,5.399
	l-8.85,1.15l4.25,4.65l-5.75,5.75l-10.8-2.301l-4.6-3.85l-10-0.4l-7.7-14.6h-10.4l-1.9-9.6l-14.25-0.4l-5,5.4l-4.6-9.65l5.8-6.9
	l4.95,4.601l1.95-13.45l5,1.15l7.3-5l-3.45-20l-6.55,5l-8.85-8.851l-26.15,8.851l-22.3-1.9l-17.3-6.15l-16.15-0.8V414.2l-17.3-1.9
	l-11.55-15L239.6,386.15l-8.85,1.55l-7.3-12.7l-13.85-8.1l-6.9-0.75l1.15-14.25l-6.55-12.65l-2.3-10.4l6.15-4.25l2.3-5.4l9.65,0.75
	l16.15,3.85l10,13.1l12.3-2.3h20l16.9,2.3l21.55-0.8l18.45,7.7l-17.65-20.75l0.75-30l-4.6-26.15l18.45-17.7l25.4-7.7l-20-10
	l-28.5-9.2l-10-13.85l-5.65-20.75l-8.2-6.2l3.5-11.9l-10.4-25l-7.7-15.4l20-21.55l-20-23.05l-16.9-21.55l11.5-28.45l26.15-13.1
	l45.4-0.75L355.4,0l71.55,2.3L457.7,0H512l64.9,0.75l26.149,5.4l8.5,11.55L622.3,6.95l20-2.35l26.15,9.25
	c1.934,0.633,8.149,0.7,18.649,0.2c5.267-0.233,10.334-0.55,15.2-0.95l10-9.25l40.75,23.1L763.85,43.1z M611.25,478.5l6.5,5.75
	L616,495.5l-7.25,12l-3.75,8.75l-5.75,4.75l-6-3l-2.5-7.5l-2.5-5.75L602.5,483L611.25,478.5z"/>
<path fill-rule="evenodd" clip-rule="evenodd" fill="none" stroke="#00FFFF" stroke-width="5" stroke-linecap="round" stroke-linejoin="round" stroke-miterlimit="3" d="
	M763.85,43.1l5.5,12.4c3.733,8.567,5.75,13.65,6.051,15.25c0.3,1.6-0.25,4.9-1.65,9.9c-0.7,2.533-1.434,4.883-2.2,7.05l20,30.75
	c6.667,25.1,10,39.2,10,42.3s0.25,11.567,0.75,25.4l-47.7-63.85L729.2,110.75c-2.934,1.167-6.017,2.483-9.25,3.95
	c-6.4,2.966-10.233,5.25-11.5,6.85c-1.267,1.6-4.467,4.767-9.601,9.5l-7.3,6.65l-3.1,16.55l7.7-7.075l3.55,10.325l5.25-2.5l10.5,4.5
	l-0.25-9.75l8,2.5l8.25,9.5l22.25,36.5l-5.25,14.5l8.5,10l1,16.25l-15.5,4l-3.75-7.75l-6.25-3.5L729.2,246l-7.95,11l-4,12.5l-7,12
	L698,284.75l-7.5-3.5l-7,5.5l-7,7.5l0.75,9.5l-7,8.5l-9.5,5.25l-3,10.75l-11.25,7.5l-9,2.25l5.75-9.75l-2.5-6.5l-11.8,1.475
	l-4.5,1.275l-16,9.5l-0.5-6l2.5-10.5l6.5-4l-5-7l-7.65,4.5l-3.6,9.2l-10,9.5l-8.5,4.5l2.5,7l10.5,5l9.5-6l11.5,4l8.5,2v9.5l-8,1.5
	l-8.5,3.5l0.5,6.5l-10.5,3.5l-6,6.5l6,3l3.5,11l7.5,10.5l11,10.5l2.625,8.3L612,427.25l11.25-0.75l-1.75,12.75L616.75,451l-4,8.5
	l-7,5.75L602,472l-9.5,14.25l-6,6.5l-5,3.75l-10,5.7l-11.75,9.25l-11,1.75l-12,0.5l-9,5.75l-10.5,3.75l-20.5-0.75l-1,6.25l4.5,2
	l2.75,8l-8,5.5l-6.75,7.25l-8.75-0.25l-10.25-5l-0.5-7.25l5.25-4.75l11.75-4.25l-0.5-4l-1.75-5.25l-10.25-3L463,519.45l-3,0.774
	l0.35-6.024l-6.55-7.3l3.85-5.75l-8.45-4.65l-6.15-6.55l-5.4,5.399l-8.85,1.15l4.25,4.65l-5.75,5.75l-10.8-2.301l-4.6-3.85l-10-0.4
	l-7.7-14.6h-10.4l-1.9-9.6l-14.25-0.4l-5,5.4l-4.6-9.65l5.8-6.9l4.95,4.601l1.95-13.45l5,1.15l7.3-5l-3.45-20l-6.55,5l-8.85-8.851
	l-26.15,8.851l-22.3-1.9l-17.3-6.15l-16.15-0.8V414.2l-17.3-1.9l-11.55-15L239.6,386.15l-8.85,1.55l-7.3-12.7l-13.85-8.1l-6.9-0.75
	l1.15-14.25l-6.55-12.65l-2.3-10.4l6.15-4.25l2.3-5.4l9.65,0.75l16.15,3.85l10,13.1l12.3-2.3h20l16.9,2.3l21.55-0.8l18.45,7.7
	l-17.65-20.75l0.75-30l-4.6-26.15l18.45-17.7l25.4-7.7l-20-10l-28.5-9.2l-10-13.85l-5.65-20.75l-8.2-6.2l3.5-11.9l-10.4-25
	l-7.7-15.4l20-21.55l-20-23.05l-16.9-21.55l11.5-28.45l26.15-13.1l45.4-0.75L355.4,0l71.55,2.3L457.7,0H512l64.9,0.75l26.149,5.4
	l8.5,11.55L622.3,6.95l20-2.35l26.15,9.25c1.934,0.633,8.149,0.7,18.649,0.2c5.267-0.233,10.334-0.55,15.2-0.95l10-9.25l40.75,23.1
	L763.85,43.1z M611.25,478.5l-8.75,4.5l-14.25,21.75l2.5,5.75l2.5,7.5l6,3l5.75-4.75l3.75-8.75l7.25-12l1.75-11.25L611.25,478.5z"/>
</svg>
